<svg xmlns="http://www.w3.org/2000/svg" version="1.1" xmlns:xlink="http://www.w3.org/1999/xlink"
  preserveAspectRatio="none" x="0px" y="0px" width="1024px" height="1024px" viewBox="0 0 1024 1024">
  <defs>
    <linearGradient id="Gradient_1" gradientUnits="userSpaceOnUse" x1="24.587499999999995" y1="107.1875" x2="78.5125"
      y2="13.8125" spreadMethod="pad">
      <stop offset="1.5686274509803921%" stop-color="#A0A6BF" />

      <stop offset="40.3921568627451%" stop-color="#A0A6BF" />

      <stop offset="40.3921568627451%" stop-color="#A3A9C1" />

      <stop offset="40.78431372549019%" stop-color="#B8BCCF" />

      <stop offset="41.1764705882353%" stop-color="#C5C8D8" />

      <stop offset="41.96078431372549%" stop-color="#C9CCDB" />

      <stop offset="42.745098039215684%" stop-color="#D7D9E5" />

      <stop offset="43.529411764705884%" stop-color="#E7E7F0" />
    </linearGradient>

    <g id="Layer0_0_MEMBER_0_MEMBER_0_FILL">
      <path fill="#C5C9D7" stroke="none" d="
M 64.25 142.75
Q 64.9 142.75 65.3 142.5
L 110.5 116.25
Q 110.95 116.05 110.95 115.7
L 110.95 114.55 110.05 114.8 93 104.95
Q 91.9 104.3 90.9 104.95
L 47.6 130.05 45.25 130.65 45.25 131.75
Q 45.25 132.1 45.7 132.4
L 63.2 142.5
Q 63.65 142.75 64.25 142.75 Z" />
    </g>

    <g id="Layer0_0_MEMBER_0_MEMBER_1_FILL">
      <path fill="#DADAE7" stroke="none" d="
M 64.25 141.65
Q 64.9 141.65 65.3 141.4
L 110.5 115.15
Q 110.95 114.95 110.95 114.55 110.95 114.2 110.5 113.95
L 93 103.8
Q 92.55 103.6 91.95 103.6 91.3 103.6 90.9 103.8
L 45.7 130.05
Q 45.25 130.3 45.25 130.65 45.25 131.05 45.7 131.25
L 63.2 141.4
Q 63.65 141.65 64.25 141.65 Z" />
    </g>

    <g id="Layer0_0_MEMBER_0_MEMBER_2_MEMBER_0_FILL">
      <path fill="#E7E7F0" stroke="none" d="
M 54.05 131.45
Q 54.2 131.3 54.2 131.2
L 54.2 131 54 131 52 129.85
Q 51.65 129.55 51.25 129.85
L 49.25 131 49.1 131 49.1 131.25 49.25 131.45 51.3 132.6
Q 51.65 132.8 52 132.6
L 54.05 131.45 Z" />
    </g>

    <g id="Layer0_0_MEMBER_0_MEMBER_2_MEMBER_1_FILL">
      <path fill="#E7E7F0" stroke="none" d="
M 66.85 138.8
Q 67 138.75 67 138.6
L 67 138.35 66.8 138.35 64.8 137.25
Q 64.45 137 64.1 137.25
L 62.1 138.4 61.9 138.4 61.9 138.65 62.05 138.8 64.1 140
Q 64.45 140.15 64.85 140
L 66.85 138.8 Z" />
    </g>

    <g id="Layer0_0_MEMBER_0_MEMBER_2_MEMBER_2_FILL">
      <path fill="#E7E7F0" stroke="none" d="
M 67.95 135.4
Q 67.6 135.15 67.25 135.4
L 65.25 136.55 65.05 136.55 65.05 136.8 65.2 137 67.25 138.15
Q 67.65 138.45 68 138.15
L 70 137
Q 70.15 136.95 70.15 136.75
L 70.15 136.55 69.95 136.55 67.95 135.4 Z" />
    </g>

    <g id="Layer0_0_MEMBER_0_MEMBER_2_MEMBER_3_FILL">
      <path fill="#E7E7F0" stroke="none" d="
M 73.15 135.15
Q 73.3 135.1 73.3 134.95
L 73.3 134.7 73.1 134.7 71.15 133.55
Q 70.8 133.35 70.4 133.55
L 68.4 134.7 68.25 134.7 68.25 134.95
Q 68.25 135.1 68.4 135.15
L 70.4 136.3
Q 70.8 136.6 71.15 136.3
L 73.15 135.15 Z" />
    </g>

    <g id="Layer0_0_MEMBER_0_MEMBER_2_MEMBER_4_FILL">
      <path fill="#E7E7F0" stroke="none" d="
M 73.55 134.5
Q 73.95 134.7 74.3 134.5
L 76.3 133.3
Q 76.45 133.25 76.45 133.1
L 76.45 132.85 76.3 132.85 74.3 131.7
Q 73.95 131.5 73.55 131.7
L 71.55 132.9 71.4 132.9 71.4 133.1
Q 71.4 133.25 71.55 133.3
L 73.55 134.5 Z" />
    </g>

    <g id="Layer0_0_MEMBER_0_MEMBER_2_MEMBER_5_FILL">
      <path fill="#E7E7F0" stroke="none" d="
M 57.2 129.6
Q 57.35 129.55 57.35 129.4
L 57.35 129.15 57.15 129.15 55.15 128
Q 54.8 127.85 54.45 128
L 52.45 129.15 52.25 129.15 52.25 129.4
Q 52.25 129.55 52.4 129.6
L 54.45 130.75
Q 54.85 131.05 55.2 130.75
L 57.2 129.6 Z" />
    </g>

    <g id="Layer0_0_MEMBER_0_MEMBER_2_MEMBER_6_FILL">
      <path fill="#E7E7F0" stroke="none" d="
M 59.4 131.55
Q 59.8 131.85 60.15 131.55
L 62.15 130.4
Q 62.3 130.35 62.3 130.2
L 62.3 129.95 62.1 129.95 60.15 128.8
Q 59.8 128.6 59.4 128.8
L 57.4 129.95 57.25 129.95 57.25 130.2
Q 57.25 130.35 57.4 130.4
L 59.4 131.55 Z" />
    </g>

    <g id="Layer0_0_MEMBER_0_MEMBER_2_MEMBER_7_FILL">
      <path fill="#E7E7F0" stroke="none" d="
M 60.55 128.1
L 60.4 128.1 60.4 128.35
Q 60.4 128.5 60.55 128.55
L 62.55 129.75
Q 62.95 129.95 63.3 129.75
L 65.3 128.55
Q 65.45 128.5 65.45 128.35
L 65.45 128.1 65.3 128.1 63.3 126.95
Q 62.95 126.75 62.55 126.95
L 60.55 128.1 Z" />
    </g>

    <g id="Layer0_0_MEMBER_0_MEMBER_2_MEMBER_8_FILL">
      <path fill="#E7E7F0" stroke="none" d="
M 64.95 129.75
Q 64.6 129.45 64.2 129.75
L 62.2 130.9 62.05 130.9 62.05 131.15
Q 62.05 131.3 62.2 131.35
L 64.2 132.5
Q 64.6 132.7 64.95 132.5
L 66.95 131.35
Q 67.1 131.3 67.1 131.1
L 67.1 130.9 66.9 130.9 64.95 129.75 Z" />
    </g>

    <g id="Layer0_0_MEMBER_0_MEMBER_2_MEMBER_9_FILL">
      <path fill="#E7E7F0" stroke="none" d="
M 65.45 132.75
L 65.25 132.75 65.25 133
Q 65.25 133.15 65.4 133.2
L 67.45 134.35
Q 67.8 134.6 68.15 134.35
L 70.2 133.2
Q 70.35 133.15 70.35 133
L 70.35 132.75 70.15 132.75 68.15 131.6
Q 67.8 131.4 67.4 131.6
L 65.45 132.75 Z" />
    </g>

    <g id="Layer0_0_MEMBER_0_MEMBER_2_MEMBER_10_FILL">
      <path fill="#E7E7F0" stroke="none" d="
M 73.35 131.35
Q 73.5 131.3 73.5 131.15
L 73.5 130.9 73.3 130.9 71.3 129.75
Q 70.95 129.6 70.6 129.75
L 68.6 130.9 68.4 130.9 68.4 131.15
Q 68.4 131.3 68.55 131.35
L 70.6 132.55
Q 71 132.75 71.35 132.55
L 73.35 131.35 Z" />
    </g>

    <g id="Layer0_0_MEMBER_0_MEMBER_2_MEMBER_11_FILL">
      <path fill="#E7E7F0" stroke="none" d="
M 76.5 129.5
Q 76.65 129.45 76.65 129.3
L 76.65 129.05 76.45 129.05 74.5 127.9
Q 74.1 127.75 73.75 127.9
L 71.75 129.1 71.55 129.1 71.55 129.3 71.6 129.3
Q 71.6 129.45 71.75 129.5
L 73.75 130.7
Q 74.15 130.9 74.5 130.7
L 76.5 129.5 Z" />
    </g>

    <g id="Layer0_0_MEMBER_0_MEMBER_2_MEMBER_12_FILL">
      <path fill="#E7E7F0" stroke="none" d="
M 79.65 127.7
Q 79.8 127.65 79.8 127.45
L 79.8 127.25 79.6 127.25 77.65 126.1
Q 77.3 125.8 76.9 126.1
L 74.9 127.25 74.75 127.25 74.75 127.5
Q 74.75 127.65 74.9 127.7
L 76.9 128.85
Q 77.3 129.15 77.65 128.85
L 79.65 127.7 Z" />
    </g>

    <g id="Layer0_0_MEMBER_0_MEMBER_2_MEMBER_13_FILL">
      <path fill="#E7E7F0" stroke="none" d="
M 80.1 127
Q 80.45 127.25 80.8 127
L 82.85 125.85
Q 83 125.8 83 125.65
L 83 125.4 82.8 125.4 80.8 124.25
Q 80.45 124.05 80.05 124.25
L 78.05 125.4 77.9 125.4 77.9 125.65
Q 77.9 125.8 78.05 125.85
L 80.1 127 Z" />
    </g>

    <g id="Layer0_0_MEMBER_0_MEMBER_2_MEMBER_14_FILL">
      <path fill="#E7E7F0" stroke="none" d="
M 86.15 123.55
L 85.95 123.55 83.95 122.4
Q 83.6 122.2 83.2 122.4
L 81.25 123.6 81.05 123.6 81.05 123.8
Q 81.05 123.95 81.2 124
L 83.25 125.2
Q 83.6 125.4 83.95 125.2
L 86 124
Q 86.15 123.95 86.15 123.8
L 86.15 123.55 Z" />
    </g>

    <g id="Layer0_0_MEMBER_0_MEMBER_2_MEMBER_15_FILL">
      <path fill="#E7E7F0" stroke="none" d="
M 84.4 121.75
L 84.2 121.75 84.2 122 84.35 122.2 86.4 123.35
Q 86.8 123.55 87.15 123.35
L 89.15 122.2
Q 89.3 122.05 89.3 121.95
L 89.3 121.75 89.1 121.75 87.1 120.6
Q 86.75 120.35 86.4 120.6
L 84.4 121.75 Z" />
    </g>

    <g id="Layer0_0_MEMBER_0_MEMBER_2_MEMBER_16_FILL">
      <path fill="#E7E7F0" stroke="none" d="
M 89.55 121.5
Q 89.95 121.8 90.3 121.5
L 92.3 120.35
Q 92.45 120.3 92.45 120.15
L 92.45 119.9 92.25 119.9 90.3 118.75
Q 89.9 118.6 89.55 118.75
L 87.55 119.9 87.35 119.9 87.35 120.15 87.4 120.15
Q 87.4 120.3 87.55 120.35
L 89.55 121.5 Z" />
    </g>

    <g id="Layer0_0_MEMBER_0_MEMBER_2_MEMBER_17_FILL">
      <path fill="#E7E7F0" stroke="none" d="
M 90.55 118.3
Q 90.55 118.45 90.7 118.5
L 92.7 119.7
Q 93.1 119.9 93.45 119.7
L 95.45 118.5
Q 95.6 118.45 95.6 118.3
L 95.6 118.05 95.4 118.05 93.45 116.9
Q 93.1 116.7 92.7 116.9
L 90.7 118.05 90.55 118.05 90.55 118.3 Z" />
    </g>

    <g id="Layer0_0_MEMBER_0_MEMBER_2_MEMBER_18_FILL">
      <path fill="#E7E7F0" stroke="none" d="
M 96.1 118.6
L 94.1 119.8 93.9 119.8 93.9 120 94.05 120.2 96.1 121.4
Q 96.5 121.6 96.85 121.4
L 98.85 120.2
Q 99 120.15 99 120
L 99 119.75 98.8 119.75 96.8 118.6
Q 96.45 118.45 96.1 118.6 Z" />
    </g>

    <g id="Layer0_0_MEMBER_0_MEMBER_2_MEMBER_19_FILL">
      <path fill="#E7E7F0" stroke="none" d="
M 102 118.4
Q 102.15 118.35 102.15 118.15
L 102.15 117.95 101.95 117.95 100 116.8
Q 99.65 116.5 99.25 116.8
L 97.25 117.95 97.1 117.95 97.1 118.2
Q 97.1 118.35 97.25 118.4
L 99.25 119.55
Q 99.65 119.75 100 119.55
L 102 118.4 Z" />
    </g>

    <g id="Layer0_0_MEMBER_0_MEMBER_2_MEMBER_20_FILL">
      <path fill="#E7E7F0" stroke="none" d="
M 108.4 114.65
Q 108.55 114.6 108.55 114.45
L 108.55 114.2 108.35 114.2 106.4 113.05
Q 106 112.9 105.65 113.05
L 103.65 114.25 103.5 114.25 103.5 114.45
Q 103.5 114.6 103.65 114.65
L 105.65 115.85
Q 106.05 116.05 106.4 115.85
L 108.4 114.65 Z" />
    </g>

    <g id="Layer0_0_MEMBER_0_MEMBER_2_MEMBER_21_FILL">
      <path fill="#E7E7F0" stroke="none" d="
M 105.4 112.4
L 105.2 112.4 103.2 111.25
Q 102.85 110.95 102.45 111.25
L 100.45 112.4 100.3 112.4 100.3 112.5 100.2 112.55 100 112.55 100 112.8
Q 100 112.95 100.15 113
L 102.2 114.15
Q 102.6 114.45 102.95 114.15
L 105.25 112.85
Q 105.4 112.7 105.4 112.6
L 105.4 112.4 Z" />
    </g>

    <g id="Layer0_0_MEMBER_0_MEMBER_2_MEMBER_22_FILL">
      <path fill="#E7E7F0" stroke="none" d="
M 98.65 116.65
Q 98.8 116.6 98.8 116.45
L 98.8 116.2 98.6 116.2 96.6 115.05
Q 96.25 114.85 95.85 115.05
L 93.85 116.25 93.7 116.25 93.7 116.45
Q 93.7 116.6 93.85 116.65
L 95.9 117.85
Q 96.25 118.05 96.6 117.85
L 98.65 116.65 Z" />
    </g>

    <g id="Layer0_0_MEMBER_0_MEMBER_2_MEMBER_23_FILL">
      <path fill="#E7E7F0" stroke="none" d="
M 101.8 114.85
Q 101.95 114.7 101.95 114.6
L 101.95 114.4 101.75 114.4 99.75 113.25
Q 99.4 112.95 99 113.25
L 97.05 114.4 96.85 114.4 96.85 114.65
Q 96.85 114.8 97 114.85
L 99.05 116
Q 99.4 116.2 99.75 116
L 101.8 114.85 Z" />
    </g>

    <g id="Layer0_0_MEMBER_0_MEMBER_2_MEMBER_24_FILL">
      <path fill="#E7E7F0" stroke="none" d="
M 70.1 129.5
Q 70.35 129.4 70.25 129.3
L 70.25 129.05 70.1 129.05 68.1 127.9
Q 67.75 127.7 67.35 127.9
L 65.35 129.05 65.2 129.05 65.2 129.3
Q 65.2 129.45 65.35 129.5
L 67.35 130.65
Q 67.75 130.9 68.1 130.65
L 70.1 129.5 Z" />
    </g>

    <g id="Layer0_0_MEMBER_0_MEMBER_2_MEMBER_25_FILL">
      <path fill="#E7E7F0" stroke="none" d="
M 73.3 127.65
Q 73.45 127.6 73.45 127.45
L 73.45 127.2 73.25 127.2 71.25 126.05
Q 70.9 125.85 70.5 126.05
L 68.5 127.2 68.35 127.2 68.35 127.45
Q 68.35 127.6 68.5 127.65
L 70.55 128.85
Q 70.9 129.05 71.25 128.85
L 73.3 127.65 Z" />
    </g>

    <g id="Layer0_0_MEMBER_0_MEMBER_2_MEMBER_26_FILL">
      <path fill="#E7E7F0" stroke="none" d="
M 76.45 125.85
Q 76.6 125.7 76.6 125.6
L 76.6 125.4 76.4 125.4 74.4 124.25
Q 74.05 124 73.7 124.25
L 71.7 125.4 71.5 125.4 71.5 125.65 71.65 125.85 73.7 127
Q 74.1 127.2 74.45 127
L 76.45 125.85 Z" />
    </g>

    <g id="Layer0_0_MEMBER_0_MEMBER_2_MEMBER_27_FILL">
      <path fill="#E7E7F0" stroke="none" d="
M 79.75 123.55
L 79.55 123.55 77.55 122.4
Q 77.2 122.15 76.85 122.4
L 74.85 123.55 74.65 123.55 74.65 123.8 74.8 124 76.85 125.15
Q 77.25 125.45 77.6 125.15
L 79.6 124
Q 79.75 123.95 79.75 123.8
L 79.75 123.55 Z" />
    </g>

    <g id="Layer0_0_MEMBER_0_MEMBER_2_MEMBER_28_FILL">
      <path fill="#E7E7F0" stroke="none" d="
M 80 123.3
Q 80.4 123.6 80.75 123.3
L 82.75 122.15
Q 82.9 122.1 82.9 121.95
L 82.9 121.7 82.7 121.7 80.75 120.55
Q 80.4 120.35 80 120.55
L 78 121.7 77.85 121.7 77.85 121.95
Q 77.85 122.1 78 122.15
L 80 123.3 Z" />
    </g>

    <g id="Layer0_0_MEMBER_0_MEMBER_2_MEMBER_29_FILL">
      <path fill="#E7E7F0" stroke="none" d="
M 85.9 120.3
Q 86.1 120.25 86.05 120.1
L 86.05 119.85 85.9 119.85 83.9 118.7
Q 83.55 118.5 83.15 118.7
L 81.15 119.9 81 119.9 81 120.1
Q 81 120.25 81.15 120.3
L 83.15 121.5
Q 83.55 121.65 83.9 121.5
L 85.9 120.3 Z" />
    </g>

    <g id="Layer0_0_MEMBER_0_MEMBER_2_MEMBER_30_FILL">
      <path fill="#E7E7F0" stroke="none" d="
M 87.05 116.9
Q 86.7 116.6 86.3 116.9
L 84.3 118.05 84.15 118.05 84.15 118.3 84.3 118.5 86.35 119.65
Q 86.7 119.85 87.05 119.65
L 89.1 118.5
Q 89.25 118.35 89.25 118.25
L 89.25 118.05 89.05 118.05 87.05 116.9 Z" />
    </g>

    <g id="Layer0_0_MEMBER_0_MEMBER_2_MEMBER_31_FILL">
      <path fill="#E7E7F0" stroke="none" d="
M 89.5 117.8
Q 89.9 118.1 90.25 117.8
L 92.25 116.65
Q 92.4 116.6 92.4 116.45
L 92.4 116.2 92.2 116.2 90.2 115.05
Q 89.85 114.9 89.5 115.05
L 87.5 116.2 87.3 116.2 87.3 116.45
Q 87.3 116.6 87.45 116.65
L 89.5 117.8 Z" />
    </g>

    <g id="Layer0_0_MEMBER_0_MEMBER_2_MEMBER_32_FILL">
      <path fill="#E7E7F0" stroke="none" d="
M 90.45 114.6
L 90.6 114.8 92.65 116
Q 93.05 116.2 93.4 116
L 95.4 114.8
Q 95.55 114.75 95.55 114.6
L 95.55 114.35 95.35 114.35 93.35 113.2
Q 93 113.05 92.65 113.2
L 90.65 114.35 90.45 114.35 90.45 114.6 Z" />
    </g>

    <g id="Layer0_0_MEMBER_0_MEMBER_2_MEMBER_33_FILL">
      <path fill="#E7E7F0" stroke="none" d="
M 68.5 126.7
Q 68.65 126.65 68.65 126.5
L 68.65 126.25 68.45 126.25 66.45 125.1
Q 66.1 124.9 65.7 125.1
L 63.7 126.3 63.55 126.3 63.55 126.5
Q 63.55 126.65 63.7 126.7
L 65.75 127.9
Q 66.1 128.1 66.45 127.9
L 68.5 126.7 Z" />
    </g>

    <g id="Layer0_0_MEMBER_0_MEMBER_2_MEMBER_34_FILL">
      <path fill="#E7E7F0" stroke="none" d="
M 69.6 123.3
Q 69.25 123.05 68.9 123.3
L 66.9 124.45 66.7 124.45 66.7 124.7
Q 66.7 124.85 66.85 124.9
L 68.9 126.05
Q 69.25 126.2 69.65 126.05
L 71.65 124.9
Q 71.8 124.75 71.8 124.65
L 71.8 124.45 71.6 124.45 69.6 123.3 Z" />
    </g>

    <g id="Layer0_0_MEMBER_0_MEMBER_2_MEMBER_35_FILL">
      <path fill="#E7E7F0" stroke="none" d="
M 69.85 122.85
L 70 123.05 72.05 124.2
Q 72.45 124.5 72.8 124.2
L 74.8 123.05
Q 74.95 123 74.95 122.85
L 74.95 122.6 74.75 122.6 72.75 121.45
Q 72.4 121.3 72.05 121.45
L 70.05 122.6 69.85 122.6 69.85 122.85 Z" />
    </g>

    <g id="Layer0_0_MEMBER_0_MEMBER_2_MEMBER_36_FILL">
      <path fill="#E7E7F0" stroke="none" d="
M 75.2 119.6
L 73.2 120.75 73.05 120.75 73.05 121
Q 73.05 121.15 73.2 121.2
L 75.2 122.4
Q 75.6 122.6 75.95 122.4
L 77.95 121.2
Q 78.1 121.15 78.1 121
L 78.1 120.75 77.9 120.75 75.95 119.6
Q 75.6 119.4 75.2 119.6 Z" />
    </g>

    <g id="Layer0_0_MEMBER_0_MEMBER_2_MEMBER_37_FILL">
      <path fill="#E7E7F0" stroke="none" d="
M 78.35 120.55
Q 78.75 120.75 79.1 120.55
L 81.1 119.35
Q 81.25 119.3 81.25 119.15
L 81.25 118.9 81.1 118.9 79.1 117.8
Q 78.75 117.5 78.35 117.8
L 76.35 118.95 76.2 118.95 76.2 119.2 76.35 119.35 78.35 120.55 Z" />
    </g>

    <g id="Layer0_0_MEMBER_0_MEMBER_2_MEMBER_38_FILL">
      <path fill="#E7E7F0" stroke="none" d="
M 79.35 117.35
Q 79.35 117.5 79.5 117.55
L 81.55 118.7
Q 81.9 118.95 82.25 118.7
L 84.3 117.55
Q 84.45 117.5 84.45 117.3
L 84.45 117.1 84.25 117.1 82.25 115.95
Q 81.9 115.65 81.5 115.95
L 79.5 117.1 79.35 117.1 79.35 117.35 Z" />
    </g>

    <g id="Layer0_0_MEMBER_0_MEMBER_2_MEMBER_39_FILL">
      <path fill="#E7E7F0" stroke="none" d="
M 87.45 115.7
Q 87.6 115.65 87.6 115.5
L 87.6 115.25 87.4 115.25 85.4 114.1
Q 85.05 113.95 84.7 114.1
L 82.7 115.25 82.5 115.25 82.5 115.5
Q 82.5 115.65 82.65 115.7
L 84.7 116.85
Q 85.05 117.1 85.45 116.85
L 87.45 115.7 Z" />
    </g>

    <g id="Layer0_0_MEMBER_0_MEMBER_2_MEMBER_40_FILL">
      <path fill="#E7E7F0" stroke="none" d="
M 90.6 113.85
Q 90.75 113.8 90.75 113.65
L 90.75 113.4 90.55 113.4 88.55 112.25
Q 88.2 112.1 87.85 112.25
L 85.85 113.45 85.65 113.45 85.65 113.65 85.8 113.85 87.85 115.05
Q 88.25 115.25 88.6 115.05
L 90.6 113.85 Z" />
    </g>

    <g id="Layer0_0_MEMBER_0_MEMBER_2_MEMBER_41_FILL">
      <path fill="#E7E7F0" stroke="none" d="
M 89 112.05
L 91 113.2
Q 91.4 113.4 91.75 113.2
L 93.75 112.05
Q 93.9 111.9 93.9 111.8
L 93.9 111.6 93.7 111.6 91.75 110.45
Q 91.4 110.15 91 110.45
L 89 111.6 88.85 111.6 88.85 111.85 89 112.05 Z" />
    </g>

    <g id="Layer0_0_MEMBER_0_MEMBER_2_MEMBER_42_FILL">
      <path fill="#E7E7F0" stroke="none" d="
M 60.35 127.75
Q 60.5 127.7 60.5 127.55
L 60.5 127.3 60.3 127.3 58.3 126.15
Q 57.95 126 57.6 126.15
L 55.6 127.3 55.4 127.3 55.4 127.55 55.55 127.75 57.6 128.95
Q 58 129.15 58.35 128.95
L 60.35 127.75 Z" />
    </g>

    <g id="Layer0_0_MEMBER_0_MEMBER_2_MEMBER_43_FILL">
      <path fill="#E7E7F0" stroke="none" d="
M 58.75 125.5
L 58.6 125.5 58.6 125.7
Q 58.6 125.85 58.75 125.9
L 60.75 127.1
Q 61.15 127.3 61.5 127.1
L 63.5 125.9
Q 63.65 125.85 63.65 125.7
L 63.65 125.45 63.45 125.45 61.5 124.3
Q 61.15 124.1 60.75 124.3
L 58.75 125.5 Z" />
    </g>

    <g id="Layer0_0_MEMBER_0_MEMBER_2_MEMBER_44_FILL">
      <path fill="#E7E7F0" stroke="none" d="
M 66.85 123.65
L 66.65 123.65 64.65 122.5
Q 64.3 122.2 63.9 122.5
L 61.9 123.65 61.75 123.65 61.75 123.9
Q 61.75 124.05 61.9 124.1
L 63.9 125.25
Q 64.3 125.4 64.65 125.25
L 66.7 124.1
Q 66.85 124.05 66.85 123.85
L 66.85 123.65 Z" />
    </g>

    <g id="Layer0_0_MEMBER_0_MEMBER_2_MEMBER_45_FILL">
      <path fill="#E7E7F0" stroke="none" d="
M 65.05 121.8
L 64.9 121.8 64.9 122.05
Q 64.9 122.2 65.05 122.25
L 67.1 123.4
Q 67.45 123.65 67.8 123.4
L 69.85 122.25
Q 70 122.2 70 122.05
L 70 121.8 69.8 121.8 67.8 120.65
Q 67.45 120.45 67.05 120.65
L 65.05 121.8 Z" />
    </g>

    <g id="Layer0_0_MEMBER_0_MEMBER_2_MEMBER_46_FILL">
      <path fill="#E7E7F0" stroke="none" d="
M 68.2 120.4
L 70.25 121.6
Q 70.65 121.8 71 121.6
L 73 120.4
Q 73.15 120.35 73.15 120.2
L 73.15 119.95 72.95 119.95 70.95 118.8
Q 70.6 118.65 70.25 118.8
L 68.25 119.95 68.05 119.95 68.05 120.2
Q 68.05 120.35 68.2 120.4 Z" />
    </g>

    <g id="Layer0_0_MEMBER_0_MEMBER_2_MEMBER_47_FILL">
      <path fill="#E7E7F0" stroke="none" d="
M 74.1 117
Q 73.75 116.75 73.4 117
L 71.4 118.15 71.2 118.15 71.2 118.4 71.35 118.6 73.4 119.75
Q 73.8 119.95 74.15 119.75
L 76.15 118.6
Q 76.3 118.45 76.3 118.35
L 76.3 118.15 76.1 118.15 74.1 117 Z" />
    </g>

    <g id="Layer0_0_MEMBER_0_MEMBER_2_MEMBER_48_FILL">
      <path fill="#E7E7F0" stroke="none" d="
M 79.3 116.75
Q 79.45 116.7 79.45 116.55
L 79.45 116.3 79.25 116.3 77.3 115.15
Q 76.95 114.85 76.55 115.15
L 74.55 116.3 74.4 116.3 74.4 116.55
Q 74.4 116.7 74.55 116.75
L 76.55 117.9
Q 76.95 118.2 77.3 117.9
L 79.3 116.75 Z" />
    </g>

    <g id="Layer0_0_MEMBER_0_MEMBER_2_MEMBER_49_FILL">
      <path fill="#E7E7F0" stroke="none" d="
M 79.7 116.05
Q 80.1 116.3 80.45 116.05
L 82.5 114.9
Q 82.65 114.85 82.65 114.7
L 82.65 114.45 82.45 114.45 80.45 113.3
Q 80.1 113.1 79.7 113.3
L 77.7 114.45 77.55 114.45 77.55 114.7
Q 77.55 114.85 77.7 114.9
L 79.7 116.05 Z" />
    </g>

    <g id="Layer0_0_MEMBER_0_MEMBER_2_MEMBER_50_FILL">
      <path fill="#E7E7F0" stroke="none" d="
M 80.7 112.85
Q 80.7 113 80.85 113.05
L 82.9 114.25
Q 83.25 114.45 83.6 114.25
L 85.65 113.05
Q 85.8 113 85.8 112.85
L 85.8 112.6 85.6 112.6 83.6 111.45
Q 83.25 111.25 82.85 111.45
L 80.85 112.65 80.7 112.65 80.7 112.85 Z" />
    </g>

    <g id="Layer0_0_MEMBER_0_MEMBER_2_MEMBER_51_FILL">
      <path fill="#E7E7F0" stroke="none" d="
M 86.05 109.65
L 84.05 110.8 83.85 110.8 83.85 111.05 84 111.25 86.05 112.4
Q 86.45 112.6 86.8 112.4
L 88.8 111.25
Q 88.95 111.1 88.95 111
L 88.95 110.8 88.75 110.8 86.75 109.65
Q 86.4 109.4 86.05 109.65 Z" />
    </g>

    <g id="Layer0_0_MEMBER_0_MEMBER_2_MEMBER_52_FILL">
      <path fill="#E7E7F0" stroke="none" d="
M 91.95 109.4
Q 92.1 109.35 92.1 109.2
L 92.1 108.95 91.9 108.95 89.9 107.8
Q 89.55 107.65 89.2 107.8
L 87.2 108.95 87 108.95 87 109.2 87.15 109.4 89.2 110.55
Q 89.6 110.85 89.95 110.55
L 91.95 109.4 Z" />
    </g>

    <g id="Layer0_0_MEMBER_0_MEMBER_2_MEMBER_53_FILL">
      <path fill="#E7E7F0" stroke="none" d="
M 95.75 107.05
L 95.75 106.8 95.55 106.8 93.55 105.7
Q 93.2 105.45 92.85 105.7
L 90.4 107.1 90.2 107.1 90.2 107.35
Q 90.2 107.5 90.35 107.55
L 92.35 108.75
Q 92.75 108.95 93.1 108.75
L 95.6 107.25
Q 95.75 107.2 95.75 107.05 Z" />
    </g>

    <g id="Layer0_0_MEMBER_0_MEMBER_2_MEMBER_54_FILL">
      <path fill="#E7E7F0" stroke="none"
        d="
M 77.1 132.75
L 77.45 132.65 95.7 122.05
Q 95.85 122 95.85 121.85
L 95.85 121.6 95.65 121.6 93.65 120.45
Q 93.45 120.3 93.1 120.4
L 92.95 120.45 90.95 121.6 90.75 121.6 90.75 121.7 74.7 131.05 74.55 131.05 74.55 131.35 74.7 131.5 76.75 132.65 77.1 132.75 Z" />
    </g>

    <g id="Layer0_0_MEMBER_0_MEMBER_2_MEMBER_55_FILL">
      <path fill="#E7E7F0" stroke="none" d="
M 53.95 126.75
Q 53.6 126.45 53.2 126.75
L 51.35 127.8 51.05 127.9 51.05 128.15 51.2 128.35 51.75 128.65
Q 52.15 128.85 52.5 128.65
L 54.5 127.45
Q 54.65 127.4 54.65 127.25
L 54.65 127.05 54.5 127.05 53.95 126.75 Z" />
    </g>

    <g id="Layer0_0_MEMBER_0_MEMBER_2_MEMBER_56_FILL">
      <path fill="#E7E7F0" stroke="none" d="
M 57.65 125.65
Q 57.8 125.6 57.8 125.45
L 57.8 125.2 57.7 125.25 57.65 125.2 57.1 124.9
Q 56.75 124.75 56.4 124.9
L 54.5 126 54.2 126.05 54.2 126.3
Q 54.2 126.45 54.35 126.5
L 54.9 126.8
Q 55.3 127.1 55.65 126.8
L 57.65 125.65 Z" />
    </g>

    <g id="Layer0_0_MEMBER_0_MEMBER_2_MEMBER_57_FILL">
      <path fill="#E7E7F0" stroke="none" d="
M 60.95 123.6
L 60.95 123.35 60.85 123.4 60.8 123.35 60.25 123.05
Q 59.9 122.9 59.55 123.05
L 57.65 124.15 57.35 124.2 57.35 124.45 57.55 124.65 58.05 124.95
Q 58.45 125.2 58.8 124.95
L 60.8 123.8
Q 60.95 123.75 60.95 123.6 Z" />
    </g>

    <g id="Layer0_0_MEMBER_0_MEMBER_2_MEMBER_58_FILL">
      <path fill="#E7E7F0" stroke="none" d="
M 64 121.95
Q 64.15 121.9 64.15 121.75
L 64.15 121.5 64 121.55 63.45 121.2
Q 63.1 121 62.7 121.2
L 60.85 122.3 60.55 122.4 60.55 122.6
Q 60.55 122.75 60.7 122.8
L 61.25 123.15
Q 61.6 123.35 61.95 123.15
L 64 121.95 Z" />
    </g>

    <g id="Layer0_0_MEMBER_0_MEMBER_2_MEMBER_59_FILL">
      <path fill="#E7E7F0" stroke="none" d="
M 64.4 121.3
Q 64.75 121.45 65.15 121.3
L 67.15 120.15
Q 67.3 120 67.3 119.9
L 67.3 119.7 67.15 119.7 66.6 119.4
Q 66.25 119.1 65.85 119.4
L 64 120.45 63.7 120.55 63.7 120.8
Q 63.7 120.95 63.85 121
L 64.4 121.3 Z" />
    </g>

    <g id="Layer0_0_MEMBER_0_MEMBER_2_MEMBER_60_FILL">
      <path fill="#E7E7F0" stroke="none" d="
M 69.75 117.55
Q 69.4 117.35 69 117.55
L 67.15 118.65 66.85 118.7 66.85 118.95
Q 66.85 119.1 67 119.15
L 67.55 119.45
Q 67.95 119.75 68.3 119.45
L 70.3 118.3
Q 70.45 118.25 70.45 118.1
L 70.45 117.85 70.3 117.9 70.3 117.85 69.75 117.55 Z" />
    </g>

    <g id="Layer0_0_MEMBER_0_MEMBER_2_MEMBER_61_FILL">
      <path fill="#E7E7F0" stroke="none" d="
M 70.15 117.3
L 70.7 117.65
Q 71.1 117.85 71.45 117.65
L 73.45 116.45
Q 73.6 116.4 73.6 116.25
L 73.6 116 73.5 116.05 73.45 116.05 72.9 115.7
Q 72.55 115.55 72.2 115.7
L 70.3 116.8 70 116.85 70 117.1
Q 70 117.25 70.15 117.3 Z" />
    </g>

    <g id="Layer0_0_MEMBER_0_MEMBER_2_MEMBER_62_FILL">
      <path fill="#E7E7F0" stroke="none" d="
M 76.6 114.6
Q 76.75 114.55 76.75 114.4
L 76.75 114.2 76.6 114.2 76.05 113.9
Q 75.7 113.65 75.35 113.9
L 73.45 114.95 73.15 115.05 73.15 115.25 73.35 115.45 73.85 115.8
Q 74.25 115.95 74.6 115.8
L 76.6 114.6 Z" />
    </g>

    <g id="Layer0_0_MEMBER_0_MEMBER_2_MEMBER_63_FILL">
      <path fill="#E7E7F0" stroke="none" d="
M 79.8 112.8
Q 79.95 112.65 79.95 112.55
L 79.95 112.35 79.8 112.35 79.25 112.05
Q 78.9 111.75 78.5 112.05
L 76.65 113.1 76.35 113.2 76.35 113.45
Q 76.35 113.6 76.5 113.65
L 77.05 113.95
Q 77.4 114.15 77.75 113.95
L 79.8 112.8 Z" />
    </g>

    <g id="Layer0_0_MEMBER_0_MEMBER_2_MEMBER_64_FILL">
      <path fill="#E7E7F0" stroke="none" d="
M 80.2 112.1
Q 80.55 112.35 80.95 112.1
L 82.95 110.95
Q 83.1 110.9 83.1 110.75
L 83.1 110.5 82.95 110.55 82.95 110.5 82.4 110.2
Q 82.05 110 81.65 110.2
L 79.8 111.3 79.5 111.35 79.5 111.6
Q 79.5 111.75 79.65 111.8
L 80.2 112.1 Z" />
    </g>

    <g id="Layer0_0_MEMBER_0_MEMBER_2_MEMBER_65_FILL">
      <path fill="#E7E7F0" stroke="none" d="
M 83.35 110.3
Q 83.75 110.5 84.1 110.3
L 86.1 109.1
Q 86.25 109.05 86.25 108.9
L 86.25 108.65 86.1 108.7 85.55 108.35
Q 85.2 108.15 84.8 108.35
L 82.95 109.45 82.65 109.5 82.65 109.75
Q 82.65 109.9 82.8 109.95
L 83.35 110.3 Z" />
    </g>

    <g id="Layer0_0_MEMBER_0_MEMBER_2_MEMBER_66_FILL">
      <path fill="#E7E7F0" stroke="none" d="
M 85.8 107.7
L 85.8 107.95 85.95 108.15 86.5 108.45
Q 86.9 108.65 87.25 108.45
L 89.25 107.25
Q 89.4 107.2 89.4 107.05
L 89.4 106.85 89.25 106.85 88.7 106.55
Q 88.35 106.3 88 106.55
L 86.1 107.6 85.8 107.7 Z" />
    </g>

    <g id="Layer0_0_MEMBER_0_MEMBER_2_MEMBER_67_FILL">
      <path fill="#E7E7F0" stroke="none" d="
M 92.4 105.45
Q 92.55 105.4 92.55 105.25
L 92.55 105 92.45 105.05 92.4 105 91.85 104.7
Q 91.5 104.55 91.15 104.7
L 89.25 105.8 88.95 105.85 88.95 106.1 89.15 106.3 89.65 106.6
Q 90.05 106.85 90.4 106.6
L 92.4 105.45 Z" />
    </g>

    <g id="Layer0_0_MEMBER_0_MEMBER_2_MEMBER_68_FILL">
      <path fill="#E7E7F0" stroke="none" d="
M 52.5 132.8
L 52.3 132.85 52.3 133.1 52.45 133.3 54.5 134.45
Q 54.85 134.65 55.2 134.45
L 59 132.25
Q 59.15 132.2 59.15 132.05
L 59.15 131.8 59 131.8 57 130.65
Q 56.65 130.45 56.25 130.65
L 52.5 132.8 Z" />
    </g>

    <g id="Layer0_0_MEMBER_0_MEMBER_2_MEMBER_69_FILL">
      <path fill="#E7E7F0" stroke="none" d="
M 55.75 134.65
L 55.5 134.7 55.5 134.9
Q 55.5 135 55.65 135.15
L 57.7 136.3
Q 58.05 136.5 58.4 136.3
L 63.8 133.15
Q 63.95 133.1 63.95 132.95
L 63.95 132.7 63.8 132.75 61.75 131.55
Q 61.4 131.4 61.05 131.55
L 55.75 134.65 Z" />
    </g>

    <g id="Layer0_0_MEMBER_0_MEMBER_2_MEMBER_70_FILL">
      <path fill="#E7E7F0" stroke="none" d="
M 59 136.5
L 58.75 136.55 58.75 136.8
Q 58.75 136.95 58.9 137
L 60.9 138.15
Q 61.3 138.45 61.65 138.15
L 67.05 135.05
Q 67.2 134.9 67.2 134.8
L 67.2 134.6 67.05 134.6 65 133.45
Q 64.65 133.15 64.25 133.45
L 59 136.5 Z" />
    </g>

    <g id="Layer0_0_MEMBER_0_MEMBER_2_MEMBER_71_FILL">
      <path fill="#E7E7F0" stroke="none" d="
M 96.05 107.55
L 92.2 109.75 92 109.8 92 110
Q 92 110.15 92.15 110.2
L 94.2 111.4
Q 94.55 111.55 94.95 111.4
L 98.8 109.1
Q 98.95 109.05 98.95 108.9
L 98.95 108.7 98.8 108.7 96.75 107.5
Q 96.35 107.3 96.05 107.55 Z" />
    </g>

    <g id="Layer0_0_MEMBER_0_MEMBER_2_MEMBER_72_FILL">
      <path fill="#E7E7F0" stroke="none" d="
M 102.15 110.75
Q 102.15 110.65 102 110.55
L 100 109.35
Q 99.6 109.2 99.25 109.35
L 93.8 112.55
Q 93.65 112.65 93.65 112.75 93.65 112.9 93.8 112.95
L 95.8 114.15
Q 96.2 114.35 96.55 114.15
L 102 110.95
Q 102.15 110.9 102.15 110.75 Z" />
    </g>

    <g id="Layer0_0_MEMBER_0_MEMBER_2_MEMBER_73_FILL">
      <path fill="#E7E7F0" stroke="none" d="
M 103.7 115.7
Q 103.85 115.65 103.85 115.5
L 103.85 115.25 103.7 115.3 103.7 115.25 103.15 114.95
Q 102.8 114.75 102.4 114.95
L 100.55 116.05 100.25 116.1 100.25 116.35
Q 100.25 116.5 100.4 116.55
L 100.95 116.85
Q 101.3 117.1 101.65 116.85
L 103.7 115.7 Z" />
    </g>

    <g id="Layer0_0_MEMBER_0_MEMBER_2_MEMBER_74_FILL">
      <path fill="#E7E7F0" stroke="none" d="
M 101.7 117.2
L 101.9 117.4 102.4 117.7
Q 102.8 117.95 103.15 117.7
L 105.15 116.55
Q 105.3 116.5 105.3 116.35
L 105.3 116.1 105.2 116.15 105.15 116.1 104.6 115.8
Q 104.25 115.65 103.9 115.8
L 102 116.9 101.7 116.95 101.7 117.2 Z" />
    </g>

    <g id="Layer0_0_MEMBER_0_MEMBER_2_MEMBER_75_FILL">
      <path fill="#E7E7F0" stroke="none" d="
M 70.2 133.2
Q 70.55 133 70.2 132.75
L 68.15 131.6
Q 67.8 131.4 67.4 131.6
L 65.4 132.75
Q 65.05 133 65.4 133.2
L 67.45 134.35
Q 67.8 134.6 68.15 134.35
L 70.2 133.2 Z" />
    </g>

    <g id="Layer0_0_MEMBER_0_MEMBER_3_FILL">
      <path fill="#E7E7F0" stroke="none" d="
M 51.35 129.3
Q 51.5 129.25 51.5 129.1
L 51.5 128.85 51.35 128.9 50.8 128.55
Q 50.45 128.35 50.05 128.55
L 47.75 129.9 47.4 130 47.4 130.25
Q 47.4 130.4 47.55 130.45
L 48.1 130.75
Q 48.5 131.05 48.85 130.75
L 51.35 129.3 Z" />
    </g>

    <g id="Layer0_0_MEMBER_0_MEMBER_4_MEMBER_0_FILL">
      <path fill="#F4F5FA" stroke="none" d="
M 54.2 131
Q 54.2 130.9 54.05 130.8
L 52 129.6
Q 51.65 129.4 51.25 129.6
L 49.25 130.8
Q 49.1 130.9 49.1 131 49.1 131.15 49.25 131.2
L 51.3 132.4
Q 51.65 132.6 52 132.4
L 54.05 131.2
Q 54.2 131.15 54.2 131 Z" />
    </g>

    <g id="Layer0_0_MEMBER_0_MEMBER_4_MEMBER_1_FILL">
      <path fill="#F4F5FA" stroke="none" d="
M 57.35 129.15
Q 57.35 129.05 57.2 128.95
L 55.15 127.75
Q 54.8 127.6 54.45 127.75
L 52.4 128.95
Q 52.25 129.05 52.25 129.15 52.25 129.3 52.4 129.35
L 54.45 130.55
Q 54.85 130.75 55.2 130.55
L 57.2 129.35
Q 57.35 129.3 57.35 129.15 Z" />
    </g>

    <g id="Layer0_0_MEMBER_0_MEMBER_4_MEMBER_2_FILL">
      <path fill="#F4F5FA" stroke="none" d="
M 60.35 127.55
Q 60.7 127.3 60.35 127.1
L 58.3 125.95
Q 57.95 125.7 57.6 125.95
L 55.55 127.1
Q 55.2 127.3 55.55 127.55
L 57.6 128.7
Q 58 128.9 58.35 128.7
L 60.35 127.55 Z" />
    </g>

    <g id="Layer0_0_MEMBER_0_MEMBER_4_MEMBER_3_FILL">
      <path fill="#F4F5FA" stroke="none" d="
M 63.5 125.7
Q 63.85 125.5 63.5 125.25
L 61.5 124.1
Q 61.15 123.9 60.75 124.1
L 58.75 125.25
Q 58.4 125.5 58.75 125.7
L 60.75 126.85
Q 61.15 127.15 61.5 126.85
L 63.5 125.7 Z" />
    </g>

    <g id="Layer0_0_MEMBER_0_MEMBER_4_MEMBER_4_FILL">
      <path fill="#F4F5FA" stroke="none" d="
M 66.85 123.65
Q 66.85 123.55 66.65 123.45
L 64.65 122.25
Q 64.3 122.05 63.9 122.25
L 61.9 123.45
Q 61.75 123.55 61.75 123.65 61.75 123.8 61.9 123.85
L 63.9 125.05
Q 64.3 125.2 64.65 125.05
L 66.65 123.85
Q 66.85 123.8 66.85 123.65 Z" />
    </g>

    <g id="Layer0_0_MEMBER_0_MEMBER_4_MEMBER_5_FILL">
      <path fill="#F4F5FA" stroke="none" d="
M 65.05 121.6
Q 64.9 121.7 64.9 121.8 64.9 121.95 65.05 122
L 67.1 123.2
Q 67.45 123.4 67.8 123.2
L 69.85 122
Q 70 121.95 70 121.8 70 121.7 69.85 121.6
L 67.8 120.45
Q 67.45 120.15 67.05 120.45
L 65.05 121.6 Z" />
    </g>

    <g id="Layer0_0_MEMBER_0_MEMBER_4_MEMBER_6_FILL">
      <path fill="#F4F5FA" stroke="none" d="
M 73 120.2
Q 73.3 120 73 119.75
L 70.95 118.6
Q 70.6 118.35 70.25 118.6
L 68.2 119.75
Q 67.9 120 68.2 120.2
L 70.25 121.35
Q 70.65 121.65 71 121.35
L 73 120.2 Z" />
    </g>

    <g id="Layer0_0_MEMBER_0_MEMBER_4_MEMBER_7_FILL">
      <path fill="#F4F5FA" stroke="none" d="
M 76.15 118.35
Q 76.5 118.15 76.15 117.9
L 74.1 116.75
Q 73.75 116.6 73.4 116.75
L 71.35 117.9
Q 71 118.15 71.35 118.35
L 73.4 119.5
Q 73.8 119.8 74.15 119.5
L 76.15 118.35 Z" />
    </g>

    <g id="Layer0_0_MEMBER_0_MEMBER_4_MEMBER_8_FILL">
      <path fill="#F4F5FA" stroke="none" d="
M 79.45 116.3
Q 79.45 116.2 79.3 116.1
L 77.3 114.9
Q 76.95 114.7 76.55 114.9
L 74.55 116.1
Q 74.4 116.2 74.4 116.3 74.4 116.45 74.55 116.5
L 76.55 117.7
Q 76.95 117.9 77.3 117.7
L 79.3 116.5
Q 79.45 116.45 79.45 116.3 Z" />
    </g>

    <g id="Layer0_0_MEMBER_0_MEMBER_4_MEMBER_9_FILL">
      <path fill="#F4F5FA" stroke="none" d="
M 79.7 115.85
Q 80.1 116 80.45 115.85
L 82.45 114.7
Q 82.9 114.45 82.45 114.25
L 80.45 113.1
Q 80.1 112.8 79.7 113.1
L 77.7 114.25
Q 77.35 114.45 77.7 114.7
L 79.7 115.85 Z" />
    </g>

    <g id="Layer0_0_MEMBER_0_MEMBER_4_MEMBER_10_FILL">
      <path fill="#F4F5FA" stroke="none" d="
M 80.85 112.4
Q 80.55 112.65 80.85 112.85
L 82.9 114
Q 83.25 114.25 83.6 114
L 85.65 112.85
Q 85.95 112.65 85.65 112.4
L 83.6 111.25
Q 83.25 111.05 82.85 111.25
L 80.85 112.4 Z" />
    </g>

    <g id="Layer0_0_MEMBER_0_MEMBER_4_MEMBER_11_FILL">
      <path fill="#F4F5FA" stroke="none" d="
M 65.3 128.35
Q 65.65 128.1 65.3 127.9
L 63.3 126.75
Q 62.95 126.45 62.55 126.75
L 60.55 127.9
Q 60.2 128.1 60.55 128.35
L 62.55 129.5
Q 62.95 129.7 63.3 129.5
L 65.3 128.35 Z" />
    </g>

    <g id="Layer0_0_MEMBER_0_MEMBER_4_MEMBER_12_FILL">
      <path fill="#F4F5FA" stroke="none" d="
M 68.5 126.5
Q 68.85 126.3 68.5 126.05
L 66.45 124.9
Q 66.1 124.7 65.7 124.9
L 63.7 126.05
Q 63.35 126.3 63.7 126.5
L 65.75 127.65
Q 66.1 127.9 66.45 127.65
L 68.5 126.5 Z" />
    </g>

    <g id="Layer0_0_MEMBER_0_MEMBER_4_MEMBER_13_FILL">
      <path fill="#F4F5FA" stroke="none" d="
M 69.6 123.05
Q 69.25 122.9 68.85 123.05
L 66.85 124.25
Q 66.7 124.35 66.7 124.45 66.7 124.6 66.85 124.65
L 68.9 125.85
Q 69.25 126 69.65 125.85
L 71.65 124.65
Q 71.8 124.6 71.8 124.45 71.8 124.35 71.65 124.25
L 69.6 123.05 Z" />
    </g>

    <g id="Layer0_0_MEMBER_0_MEMBER_4_MEMBER_14_FILL">
      <path fill="#F4F5FA" stroke="none" d="
M 74.95 122.6
Q 74.95 122.5 74.8 122.4
L 72.75 121.2
Q 72.4 121.05 72.05 121.2
L 70 122.4
Q 69.85 122.5 69.85 122.6 69.85 122.75 70 122.8
L 72.05 124
Q 72.45 124.2 72.8 124
L 74.8 122.8
Q 74.95 122.75 74.95 122.6 Z" />
    </g>

    <g id="Layer0_0_MEMBER_0_MEMBER_4_MEMBER_15_FILL">
      <path fill="#F4F5FA" stroke="none" d="
M 77.95 121
Q 78.25 120.8 77.95 120.55
L 75.95 119.4
Q 75.6 119.1 75.2 119.4
L 73.2 120.55
Q 72.9 120.8 73.2 121
L 75.2 122.15
Q 75.65 122.4 75.95 122.15
L 77.95 121 Z" />
    </g>

    <g id="Layer0_0_MEMBER_0_MEMBER_4_MEMBER_16_FILL">
      <path fill="#F4F5FA" stroke="none" d="
M 78.35 120.3
Q 78.75 120.6 79.1 120.3
L 81.1 119.15
Q 81.45 118.95 81.1 118.7
L 79.1 117.55
Q 78.75 117.35 78.35 117.55
L 76.35 118.7
Q 76 118.95 76.35 119.15
L 78.35 120.3 Z" />
    </g>

    <g id="Layer0_0_MEMBER_0_MEMBER_4_MEMBER_17_FILL">
      <path fill="#F4F5FA" stroke="none" d="
M 79.35 117.1
Q 79.35 117.25 79.5 117.3
L 81.55 118.5
Q 81.9 118.7 82.25 118.5
L 84.3 117.3
Q 84.45 117.25 84.45 117.1 84.45 117 84.3 116.9
L 82.25 115.7
Q 81.9 115.5 81.5 115.7
L 79.5 116.9
Q 79.35 117 79.35 117.1 Z" />
    </g>

    <g id="Layer0_0_MEMBER_0_MEMBER_4_MEMBER_18_FILL">
      <path fill="#F4F5FA" stroke="none" d="
M 87.45 115.5
Q 87.8 115.25 87.45 115.05
L 85.4 113.9
Q 85.05 113.65 84.65 113.9
L 82.65 115.05
Q 82.3 115.25 82.65 115.5
L 84.7 116.65
Q 85.05 116.8 85.45 116.65
L 87.45 115.5 Z" />
    </g>

    <g id="Layer0_0_MEMBER_0_MEMBER_4_MEMBER_19_FILL">
      <path fill="#F4F5FA" stroke="none" d="
M 90.6 113.65
Q 90.9 113.45 90.6 113.2
L 88.55 112.05
Q 88.2 111.9 87.85 112.05
L 85.8 113.2
Q 85.5 113.45 85.8 113.65
L 87.85 114.8
Q 88.25 115.1 88.6 114.8
L 90.6 113.65 Z" />
    </g>

    <g id="Layer0_0_MEMBER_0_MEMBER_4_MEMBER_20_FILL">
      <path fill="#F4F5FA" stroke="none" d="
M 89 111.8
L 91 112.95
Q 91.35 113.2 91.75 113
L 93.75 111.8
Q 93.9 111.75 93.9 111.6 93.9 111.5 93.75 111.4
L 91.75 110.2
Q 91.35 110.05 91 110.2
L 89 111.4
Q 88.85 111.5 88.85 111.6 88.85 111.75 89 111.8 Z" />
    </g>

    <g id="Layer0_0_MEMBER_0_MEMBER_4_MEMBER_21_FILL">
      <path fill="#F4F5FA" stroke="none" d="
M 88.95 110.8
Q 88.95 110.7 88.8 110.6
L 86.75 109.4
Q 86.4 109.25 86.05 109.4
L 84 110.6
Q 83.85 110.7 83.85 110.8 83.85 110.95 84 111
L 86.05 112.2
Q 86.45 112.4 86.8 112.2
L 88.8 111
Q 88.95 110.95 88.95 110.8 Z" />
    </g>

    <g id="Layer0_0_MEMBER_0_MEMBER_4_MEMBER_22_FILL">
      <path fill="#F4F5FA" stroke="none" d="
M 92.1 108.95
Q 92.1 108.85 91.95 108.75
L 89.9 107.55
Q 89.55 107.4 89.2 107.55
L 87.15 108.75
Q 87 108.85 87 108.95 87 109.1 87.15 109.15
L 89.2 110.35
Q 89.6 110.55 89.95 110.35
L 91.95 109.15
Q 92.1 109.1 92.1 108.95 Z" />
    </g>

    <g id="Layer0_0_MEMBER_0_MEMBER_4_MEMBER_23_FILL">
      <path fill="#F4F5FA" stroke="none" d="
M 66.85 138.6
Q 67.2 138.4 66.85 138.15
L 64.8 137
Q 64.45 136.85 64.1 137
L 62.05 138.15
Q 61.7 138.4 62.05 138.6
L 64.1 139.75
Q 64.45 140 64.85 139.75
L 66.85 138.6 Z" />
    </g>

    <g id="Layer0_0_MEMBER_0_MEMBER_4_MEMBER_24_FILL">
      <path fill="#F4F5FA" stroke="none" d="
M 67.95 135.15
Q 67.6 135 67.25 135.15
L 65.2 136.35
Q 65.05 136.45 65.05 136.55 65.05 136.7 65.2 136.75
L 67.25 137.95
Q 67.65 138.15 68 137.95
L 70 136.75
Q 70.15 136.7 70.15 136.55 70.15 136.45 70 136.35
L 67.95 135.15 Z" />
    </g>

    <g id="Layer0_0_MEMBER_0_MEMBER_4_MEMBER_25_FILL">
      <path fill="#F4F5FA" stroke="none" d="
M 73.15 134.95
Q 73.5 134.7 73.15 134.5
L 71.15 133.35
Q 70.8 133.05 70.4 133.35
L 68.4 134.5
Q 68.05 134.7 68.4 134.95
L 70.4 136.1
Q 70.8 136.3 71.15 136.1
L 73.15 134.95 Z" />
    </g>

    <g id="Layer0_0_MEMBER_0_MEMBER_4_MEMBER_26_FILL">
      <path fill="#F4F5FA" stroke="none" d="
M 76.3 133.1
Q 76.6 132.9 76.3 132.65
L 74.3 131.5
Q 73.95 131.3 73.55 131.5
L 71.55 132.65
Q 71.25 132.9 71.55 133.1
L 73.55 134.25
Q 73.95 134.55 74.3 134.25
L 76.3 133.1 Z" />
    </g>

    <g id="Layer0_0_MEMBER_0_MEMBER_4_MEMBER_27_FILL">
      <path fill="#F4F5FA" stroke="none" d="
M 60.15 128.55
Q 59.8 128.35 59.4 128.55
L 57.4 129.75
Q 57.25 129.85 57.25 129.95 57.25 130.1 57.4 130.15
L 59.4 131.35
Q 59.8 131.55 60.15 131.35
L 62.15 130.15
Q 62.3 130.1 62.3 129.95 62.3 129.85 62.15 129.75
L 60.15 128.55 Z" />
    </g>

    <g id="Layer0_0_MEMBER_0_MEMBER_4_MEMBER_28_FILL">
      <path fill="#F4F5FA" stroke="none" d="
M 95.6 107.05
Q 95.95 106.85 95.6 106.6
L 93.55 105.45
Q 93.2 105.3 92.85 105.45
L 90.35 106.9
Q 90 107.1 90.35 107.35
L 92.35 108.5
Q 92.75 108.7 93.1 108.5
L 95.6 107.05 Z" />
    </g>

    <g id="Layer0_0_MEMBER_0_MEMBER_4_MEMBER_29_FILL">
      <path fill="#F4F5FA" stroke="none" d="
M 76.75 132.4
Q 77.05 132.65 77.45 132.45
L 95.7 121.85
Q 96.05 121.6 95.7 121.4
L 93.65 120.25
Q 93.3 120 92.95 120.25
L 74.7 130.85
Q 74.55 130.95 74.55 131.05 74.55 131.2 74.7 131.25
L 76.75 132.4 Z" />
    </g>

    <g id="Layer0_0_MEMBER_0_MEMBER_4_MEMBER_30_FILL">
      <path fill="#F4F5FA" stroke="none" d="
M 53.95 126.5
Q 53.6 126.3 53.2 126.5
L 51.2 127.7
Q 51.05 127.8 51.05 127.9 51.05 128.05 51.2 128.1
L 51.75 128.4
Q 52.15 128.7 52.5 128.4
L 54.5 127.25
Q 54.85 127.05 54.5 126.8
L 53.95 126.5 Z" />
    </g>

    <g id="Layer0_0_MEMBER_0_MEMBER_4_MEMBER_31_FILL">
      <path fill="#F4F5FA" stroke="none" d="
M 57.8 125.2
Q 57.8 125.1 57.65 125
L 57.1 124.65
Q 56.75 124.5 56.4 124.65
L 54.35 125.85
Q 54.2 125.95 54.2 126.05 54.2 126.2 54.35 126.25
L 54.9 126.6
Q 55.3 126.8 55.65 126.6
L 57.65 125.4
Q 57.8 125.35 57.8 125.2 Z" />
    </g>

    <g id="Layer0_0_MEMBER_0_MEMBER_4_MEMBER_32_FILL">
      <path fill="#F4F5FA" stroke="none" d="
M 60.8 123.6
Q 61.2 123.35 60.8 123.15
L 60.25 122.85
Q 59.9 122.6 59.55 122.85
L 57.5 124
Q 57.15 124.2 57.5 124.45
L 58.05 124.75
Q 58.45 124.95 58.8 124.75
L 60.8 123.6 Z" />
    </g>

    <g id="Layer0_0_MEMBER_0_MEMBER_4_MEMBER_33_FILL">
      <path fill="#F4F5FA" stroke="none" d="
M 64 121.75
Q 64.3 121.55 64 121.3
L 63.45 121
Q 63.1 120.8 62.7 121
L 60.7 122.15
Q 60.35 122.4 60.7 122.6
L 61.25 122.9
Q 61.6 123.15 61.95 122.9
L 64 121.75 Z" />
    </g>

    <g id="Layer0_0_MEMBER_0_MEMBER_4_MEMBER_34_FILL">
      <path fill="#F4F5FA" stroke="none" d="
M 63.85 120.35
Q 63.7 120.45 63.7 120.55 63.7 120.7 63.85 120.75
L 64.4 121.05
Q 64.75 121.3 65.15 121.05
L 67.15 119.9
Q 67.3 119.85 67.3 119.7 67.3 119.6 67.15 119.5
L 66.6 119.15
Q 66.25 118.95 65.85 119.15
L 63.85 120.35 Z" />
    </g>

    <g id="Layer0_0_MEMBER_0_MEMBER_4_MEMBER_35_FILL">
      <path fill="#F4F5FA" stroke="none" d="
M 69.75 117.35
Q 69.4 117.1 69 117.3
L 67 118.5
Q 66.85 118.6 66.85 118.7 66.85 118.85 67 118.9
L 67.55 119.25
Q 67.95 119.45 68.3 119.25
L 70.3 118.05
Q 70.45 118 70.45 117.85 70.45 117.75 70.3 117.65
L 69.75 117.35 Z" />
    </g>

    <g id="Layer0_0_MEMBER_0_MEMBER_4_MEMBER_36_FILL">
      <path fill="#F4F5FA" stroke="none" d="
M 73.45 116.25
Q 73.8 116 73.45 115.8
L 72.9 115.5
Q 72.55 115.25 72.2 115.5
L 70.15 116.65
Q 69.85 116.9 70.15 117.1
L 70.7 117.4
Q 71.1 117.6 71.45 117.4
L 73.45 116.25 Z" />
    </g>

    <g id="Layer0_0_MEMBER_0_MEMBER_4_MEMBER_37_FILL">
      <path fill="#F4F5FA" stroke="none" d="
M 76.6 114.4
Q 76.95 114.2 76.6 113.95
L 76.05 113.65
Q 75.7 113.5 75.35 113.65
L 73.3 114.8
Q 72.95 115.05 73.3 115.25
L 73.85 115.55
Q 74.25 115.85 74.6 115.55
L 76.6 114.4 Z" />
    </g>

    <g id="Layer0_0_MEMBER_0_MEMBER_4_MEMBER_38_FILL">
      <path fill="#F4F5FA" stroke="none" d="
M 79.95 112.35
Q 79.95 112.25 79.8 112.15
L 79.25 111.8
Q 78.9 111.6 78.5 111.8
L 76.5 113
Q 76.35 113.1 76.35 113.2 76.35 113.35 76.5 113.4
L 77.05 113.75
Q 77.4 113.95 77.75 113.75
L 79.8 112.55
Q 79.95 112.5 79.95 112.35 Z" />
    </g>

    <g id="Layer0_0_MEMBER_0_MEMBER_4_MEMBER_39_FILL">
      <path fill="#F4F5FA" stroke="none" d="
M 80.2 111.9
Q 80.55 112.05 80.95 111.9
L 82.95 110.7
Q 83.1 110.65 83.1 110.5 83.1 110.4 82.95 110.3
L 82.4 110
Q 82.05 109.7 81.65 110
L 79.65 111.15
Q 79.3 111.35 79.65 111.6
L 80.2 111.9 Z" />
    </g>

    <g id="Layer0_0_MEMBER_0_MEMBER_4_MEMBER_40_FILL">
      <path fill="#F4F5FA" stroke="none" d="
M 86.1 108.9
Q 86.4 108.7 86.1 108.45
L 85.55 108.15
Q 85.2 107.95 84.8 108.15
L 82.8 109.3
Q 82.5 109.55 82.8 109.75
L 83.35 110.05
Q 83.75 110.25 84.1 110.05
L 86.1 108.9 Z" />
    </g>

    <g id="Layer0_0_MEMBER_0_MEMBER_4_MEMBER_41_FILL">
      <path fill="#F4F5FA" stroke="none" d="
M 85.95 107.5
Q 85.8 107.6 85.8 107.7 85.8 107.85 85.95 107.9
L 86.5 108.2
Q 86.9 108.5 87.25 108.2
L 89.25 107.05
Q 89.6 106.85 89.25 106.6
L 88.7 106.3
Q 88.35 106.15 88 106.3
L 85.95 107.5 Z" />
    </g>

    <g id="Layer0_0_MEMBER_0_MEMBER_4_MEMBER_42_FILL">
      <path fill="#F4F5FA" stroke="none" d="
M 92.55 105
Q 92.55 104.9 92.4 104.8
L 91.85 104.45
Q 91.5 104.3 91.15 104.45
L 89.1 105.65
Q 88.95 105.75 88.95 105.85 88.95 106 89.1 106.05
L 89.65 106.4
Q 90.05 106.6 90.4 106.4
L 92.4 105.2
Q 92.55 105.15 92.55 105 Z" />
    </g>

    <g id="Layer0_0_MEMBER_0_MEMBER_4_MEMBER_43_FILL">
      <path fill="#F4F5FA" stroke="none" d="
M 51.35 129.1
Q 51.65 128.9 51.35 128.65
L 50.8 128.35
Q 50.35 128.15 50.05 128.35
L 47.55 129.8
Q 47.4 129.9 47.4 130 47.4 130.15 47.55 130.2
L 48.1 130.55
Q 48.5 130.75 48.85 130.55
L 51.35 129.1 Z" />
    </g>

    <g id="Layer0_0_MEMBER_0_MEMBER_4_MEMBER_44_FILL">
      <path fill="#F4F5FA" stroke="none" d="
M 52.45 132.65
Q 52.3 132.75 52.3 132.85 52.3 133 52.45 133.05
L 54.5 134.25
Q 54.85 134.45 55.2 134.25
L 59 132
Q 59.15 131.95 59.15 131.8 59.15 131.7 59 131.6
L 57 130.4
Q 56.65 130.2 56.25 130.4
L 52.45 132.65 Z" />
    </g>

    <g id="Layer0_0_MEMBER_0_MEMBER_4_MEMBER_45_FILL">
      <path fill="#F4F5FA" stroke="none" d="
M 55.65 134.5
Q 55.5 134.6 55.5 134.7 55.5 134.85 55.65 134.9
L 57.7 136.05
Q 58.05 136.3 58.4 136.05
L 63.8 132.95
Q 64.15 132.75 63.8 132.5
L 61.75 131.35
Q 61.4 131.2 61.05 131.35
L 55.65 134.5 Z" />
    </g>

    <g id="Layer0_0_MEMBER_0_MEMBER_4_MEMBER_46_FILL">
      <path fill="#F4F5FA" stroke="none" d="
M 58.9 136.35
Q 58.75 136.45 58.75 136.55 58.75 136.7 58.9 136.75
L 60.9 137.95
Q 61.3 138.15 61.65 137.95
L 67.05 134.8
Q 67.2 134.75 67.2 134.6 67.2 134.5 67.05 134.4
L 65 133.2
Q 64.65 133 64.25 133.2
L 58.9 136.35 Z" />
    </g>

    <g id="Layer0_0_MEMBER_0_MEMBER_4_MEMBER_47_FILL">
      <path fill="#F4F5FA" stroke="none" d="
M 98.8 108.9
Q 99.15 108.7 98.8 108.45
L 96.75 107.3
Q 96.4 107.15 96.05 107.3
L 92.15 109.55
Q 91.8 109.75 92.15 110
L 94.2 111.15
Q 94.55 111.3 94.95 111.15
L 98.8 108.9 Z" />
    </g>

    <g id="Layer0_0_MEMBER_0_MEMBER_4_MEMBER_48_FILL">
      <path fill="#F4F5FA" stroke="none" d="
M 102 110.75
Q 102.35 110.55 102 110.3
L 100 109.15
Q 99.6 109 99.25 109.15
L 93.8 112.3
Q 93.45 112.55 93.8 112.75
L 95.8 113.9
Q 96.2 114.2 96.55 113.9
L 102 110.75 Z" />
    </g>

    <g id="Layer0_0_MEMBER_0_MEMBER_4_MEMBER_49_FILL">
      <path fill="#F4F5FA" stroke="none" d="
M 103.85 115.25
Q 103.85 115.15 103.7 115.05
L 103.15 114.75
Q 102.8 114.45 102.4 114.75
L 100.4 115.9
Q 100.25 116 100.25 116.1 100.25 116.25 100.4 116.3
L 100.95 116.65
Q 101.3 116.85 101.65 116.65
L 103.7 115.45
Q 103.85 115.4 103.85 115.25 Z" />
    </g>

    <g id="Layer0_0_MEMBER_0_MEMBER_4_MEMBER_50_FILL">
      <path fill="#F4F5FA" stroke="none" d="
M 105.15 115.9
L 104.6 115.6
Q 104.25 115.35 103.9 115.6
L 101.85 116.75
Q 101.45 116.95 101.9 117.2
L 102.4 117.5
Q 102.8 117.65 103.15 117.5
L 105.15 116.3
Q 105.35 116.25 105.3 116.1 105.3 116 105.15 115.9 Z" />
    </g>

    <g id="Layer0_0_MEMBER_0_MEMBER_4_MEMBER_51_FILL">
      <path fill="#F4F5FA" stroke="none" d="
M 89.5 117.6
Q 89.85 117.75 90.25 117.6
L 92.25 116.4
Q 92.4 116.35 92.4 116.2 92.4 116.1 92.25 116
L 90.2 114.8
Q 89.85 114.65 89.5 114.8
L 87.45 116
Q 87.3 116.1 87.3 116.2 87.3 116.35 87.45 116.4
L 89.5 117.6 Z" />
    </g>

    <g id="Layer0_0_MEMBER_0_MEMBER_4_MEMBER_52_FILL">
      <path fill="#F4F5FA" stroke="none" d="
M 95.4 114.6
Q 95.7 114.4 95.4 114.15
L 93.35 113
Q 93 112.75 92.65 113
L 90.6 114.15
Q 90.25 114.35 90.6 114.6
L 92.65 115.75
Q 93.05 115.95 93.4 115.75
L 95.4 114.6 Z" />
    </g>

    <g id="Layer0_0_MEMBER_0_MEMBER_4_MEMBER_53_FILL">
      <path fill="#F4F5FA" stroke="none" d="
M 95.45 118.3
Q 95.8 118.05 95.45 117.85
L 93.45 116.7
Q 93.1 116.4 92.7 116.7
L 90.7 117.85
Q 90.35 118.05 90.7 118.3
L 92.7 119.45
Q 93.1 119.65 93.45 119.45
L 95.45 118.3 Z" />
    </g>

    <g id="Layer0_0_MEMBER_0_MEMBER_4_MEMBER_54_FILL">
      <path fill="#F4F5FA" stroke="none" d="
M 98.65 116.45
Q 99.05 116.25 98.6 116
L 96.6 114.85
Q 96.25 114.65 95.85 114.85
L 93.85 116
Q 93.5 116.25 93.85 116.45
L 95.9 117.6
Q 96.25 117.85 96.6 117.6
L 98.65 116.45 Z" />
    </g>

    <g id="Layer0_0_MEMBER_0_MEMBER_4_MEMBER_55_FILL">
      <path fill="#F4F5FA" stroke="none" d="
M 101.95 114.4
Q 101.95 114.3 101.8 114.2
L 99.75 113
Q 99.4 112.8 99 113
L 97 114.2
Q 96.85 114.3 96.85 114.4 96.85 114.55 97 114.6
L 99.05 115.8
Q 99.4 116 99.75 115.8
L 101.8 114.6
Q 101.95 114.55 101.95 114.4 Z" />
    </g>

    <g id="Layer0_0_MEMBER_0_MEMBER_4_MEMBER_56_FILL">
      <path fill="#F4F5FA" stroke="none" d="
M 105.4 112.4
Q 105.4 112.3 105.25 112.2
L 103.2 111
Q 102.85 110.8 102.45 111
L 100.15 112.35
Q 100 112.45 100 112.55 100 112.7 100.15 112.75
L 102.2 113.95
Q 102.6 114.15 102.95 113.95
L 105.25 112.6
Q 105.4 112.55 105.4 112.4 Z" />
    </g>

    <g id="Layer0_0_MEMBER_0_MEMBER_4_MEMBER_57_FILL">
      <path fill="#F4F5FA" stroke="none" d="
M 85.9 120.1
Q 86.25 119.9 85.9 119.65
L 83.9 118.5
Q 83.55 118.3 83.15 118.5
L 81.15 119.65
Q 80.85 119.9 81.15 120.1
L 83.15 121.25
Q 83.55 121.5 83.9 121.25
L 85.9 120.1 Z" />
    </g>

    <g id="Layer0_0_MEMBER_0_MEMBER_4_MEMBER_58_FILL">
      <path fill="#F4F5FA" stroke="none" d="
M 87.05 116.65
Q 86.7 116.45 86.3 116.65
L 84.3 117.85
Q 84.15 117.95 84.15 118.05 84.15 118.2 84.3 118.25
L 86.35 119.45
Q 86.7 119.65 87.05 119.45
L 89.1 118.25
Q 89.25 118.2 89.25 118.05 89.25 117.95 89.1 117.85
L 87.05 116.65 Z" />
    </g>

    <g id="Layer0_0_MEMBER_0_MEMBER_4_MEMBER_59_FILL">
      <path fill="#F4F5FA" stroke="none" d="
M 84.35 121.55
Q 84.2 121.65 84.2 121.75 84.2 121.9 84.35 121.95
L 86.4 123.1
Q 86.8 123.4 87.15 123.1
L 89.15 121.95
Q 89.3 121.9 89.3 121.75 89.3 121.65 89.15 121.55
L 87.1 120.35
Q 86.75 120.2 86.4 120.35
L 84.35 121.55 Z" />
    </g>

    <g id="Layer0_0_MEMBER_0_MEMBER_4_MEMBER_60_FILL">
      <path fill="#F4F5FA" stroke="none" d="
M 89.55 121.3
Q 89.95 121.5 90.3 121.3
L 92.3 120.1
Q 92.45 120.05 92.45 119.9 92.45 119.8 92.3 119.7
L 90.25 118.5
Q 89.9 118.35 89.55 118.5
L 87.5 119.7
Q 87.35 119.8 87.35 119.9 87.35 120.05 87.55 120.1
L 89.55 121.3 Z" />
    </g>

    <g id="Layer0_0_MEMBER_0_MEMBER_4_MEMBER_61_FILL">
      <path fill="#F4F5FA" stroke="none" d="
M 79.75 123.55
Q 79.75 123.45 79.6 123.35
L 77.55 122.15
Q 77.2 122 76.85 122.15
L 74.8 123.35
Q 74.65 123.45 74.65 123.55 74.65 123.7 74.8 123.75
L 76.85 124.95
Q 77.25 125.15 77.6 124.95
L 79.6 123.75
Q 79.75 123.7 79.75 123.55 Z" />
    </g>

    <g id="Layer0_0_MEMBER_0_MEMBER_4_MEMBER_62_FILL">
      <path fill="#F4F5FA" stroke="none" d="
M 80 123.1
Q 80.4 123.3 80.75 123.1
L 82.75 121.95
Q 83.1 121.7 82.75 121.5
L 80.75 120.35
Q 80.4 120.05 80 120.35
L 78 121.5
Q 77.65 121.7 78 121.95
L 80 123.1 Z" />
    </g>

    <g id="Layer0_0_MEMBER_0_MEMBER_4_MEMBER_63_FILL">
      <path fill="#F4F5FA" stroke="none" d="
M 80.1 126.8
Q 80.45 127 80.8 126.8
L 82.85 125.65
Q 83.2 125.4 82.85 125.2
L 80.8 124.05
Q 80.45 123.75 80.05 124.05
L 78.05 125.2
Q 77.9 125.3 77.9 125.4 77.9 125.55 78.05 125.6
L 80.1 126.8 Z" />
    </g>

    <g id="Layer0_0_MEMBER_0_MEMBER_4_MEMBER_64_FILL">
      <path fill="#F4F5FA" stroke="none" d="
M 86 123.8
Q 86.3 123.6 86 123.35
L 83.95 122.2
Q 83.6 121.9 83.2 122.2
L 81.2 123.35
Q 80.9 123.6 81.2 123.8
L 83.25 124.95
Q 83.6 125.2 83.95 124.95
L 86 123.8 Z" />
    </g>

    <g id="Layer0_0_MEMBER_0_MEMBER_4_MEMBER_65_FILL">
      <path fill="#F4F5FA" stroke="none" d="
M 73.3 127.45
Q 73.6 127.25 73.3 127
L 71.25 125.85
Q 70.9 125.55 70.5 125.85
L 68.5 127
Q 68.2 127.25 68.5 127.45
L 70.55 128.6
Q 70.9 128.85 71.25 128.6
L 73.3 127.45 Z" />
    </g>

    <g id="Layer0_0_MEMBER_0_MEMBER_4_MEMBER_66_FILL">
      <path fill="#F4F5FA" stroke="none" d="
M 76.45 125.6
Q 76.8 125.4 76.45 125.15
L 74.4 124
Q 74.05 123.85 73.7 124
L 71.65 125.15
Q 71.3 125.4 71.65 125.6
L 73.7 126.75
Q 74.05 127 74.45 126.75
L 76.45 125.6 Z" />
    </g>

    <g id="Layer0_0_MEMBER_0_MEMBER_4_MEMBER_67_FILL">
      <path fill="#F4F5FA" stroke="none" d="
M 76.5 129.3
Q 76.85 129.1 76.5 128.85
L 74.5 127.7
Q 74.1 127.55 73.75 127.7
L 71.7 128.85
Q 71.35 129.15 71.75 129.3
L 73.75 130.45
Q 74.15 130.75 74.5 130.45
L 76.5 129.3 Z" />
    </g>

    <g id="Layer0_0_MEMBER_0_MEMBER_4_MEMBER_68_FILL">
      <path fill="#F4F5FA" stroke="none" d="
M 79.8 127.25
Q 79.8 127.15 79.65 127.05
L 77.65 125.85
Q 77.3 125.65 76.9 125.85
L 74.9 127.05
Q 74.75 127.15 74.75 127.25 74.75 127.4 74.9 127.45
L 76.9 128.65
Q 77.3 128.85 77.65 128.65
L 79.65 127.45
Q 79.8 127.4 79.8 127.25 Z" />
    </g>

    <g id="Layer0_0_MEMBER_0_MEMBER_4_MEMBER_69_FILL">
      <path fill="#F4F5FA" stroke="none" d="
M 64.95 129.5
Q 64.6 129.3 64.2 129.5
L 62.2 130.7
Q 62.05 130.8 62.05 130.9 62.05 131.05 62.2 131.1
L 64.2 132.3
Q 64.6 132.5 64.95 132.3
L 66.95 131.1
Q 67.1 131.05 67.1 130.9 67.1 130.8 66.95 130.7
L 64.95 129.5 Z" />
    </g>

    <g id="Layer0_0_MEMBER_0_MEMBER_4_MEMBER_70_FILL">
      <path fill="#F4F5FA" stroke="none" d="
M 70.3 129.05
Q 70.3 128.95 70.1 128.85
L 68.1 127.7
Q 67.75 127.4 67.35 127.7
L 65.35 128.85
Q 65.2 128.95 65.2 129.05 65.2 129.2 65.35 129.25
L 67.35 130.45
Q 67.75 130.6 68.1 130.45
L 70.1 129.25
Q 70.3 129.2 70.3 129.05 Z" />
    </g>

    <g id="Layer0_0_MEMBER_0_MEMBER_4_MEMBER_71_FILL">
      <path fill="#F4F5FA" stroke="none" d="
M 65.4 132.55
Q 65.25 132.65 65.25 132.75 65.25 132.9 65.4 132.95
L 67.45 134.15
Q 67.8 134.35 68.15 134.15
L 70.2 132.95
Q 70.35 132.9 70.35 132.75 70.35 132.65 70.2 132.55
L 68.15 131.35
Q 67.8 131.15 67.4 131.35
L 65.4 132.55 Z" />
    </g>

    <g id="Layer0_0_MEMBER_0_MEMBER_4_MEMBER_72_FILL">
      <path fill="#F4F5FA" stroke="none" d="
M 73.35 131.15
Q 73.65 130.95 73.35 130.7
L 71.3 129.55
Q 70.95 129.3 70.6 129.55
L 68.55 130.7
Q 68.25 130.95 68.55 131.15
L 70.6 132.3
Q 71 132.5 71.35 132.3
L 73.35 131.15 Z" />
    </g>

    <g id="Layer0_0_MEMBER_0_MEMBER_4_MEMBER_73_FILL">
      <path fill="#F4F5FA" stroke="none" d="
M 98.85 120
Q 99.2 119.8 98.85 119.55
L 96.8 118.4
Q 96.45 118.25 96.1 118.4
L 94.05 119.55
Q 93.7 119.8 94.05 120
L 96.1 121.15
Q 96.5 121.45 96.85 121.15
L 98.85 120 Z" />
    </g>

    <g id="Layer0_0_MEMBER_0_MEMBER_4_MEMBER_74_FILL">
      <path fill="#F4F5FA" stroke="none" d="
M 102.15 117.95
Q 102.15 117.85 102 117.75
L 100 116.55
Q 99.65 116.35 99.25 116.55
L 97.25 117.75
Q 97.1 117.85 97.1 117.95 97.1 118.1 97.25 118.15
L 99.25 119.35
Q 99.65 119.55 100 119.35
L 102 118.15
Q 102.15 118.1 102.15 117.95 Z" />
    </g>

    <g id="Layer0_0_MEMBER_0_MEMBER_4_MEMBER_75_FILL">
      <path fill="#F4F5FA" stroke="none" d="
M 108.4 114.45
Q 108.75 114.25 108.4 114
L 106.4 112.85
Q 106.05 112.65 105.65 112.85
L 103.65 114
Q 103.3 114.25 103.65 114.45
L 105.65 115.6
Q 106.05 115.9 106.4 115.6
L 108.4 114.45 Z" />
    </g>

    <g id="Layer0_0_MEMBER_1_MEMBER_0_MEMBER_0_FILL">
      <path fill="#57565E" stroke="none" d="
M 110.8 94.2
Q 109.85 94.2 109.25 94.55
L 97.6 101.25
Q 97 101.6 97.05 102.15 97.15 102.7 97.85 103.1
L 113.6 112.2
Q 114.3 112.6 115.25 112.65 116.15 112.7 116.8 112.35
L 128.45 105.6
Q 129.05 105.25 129 104.7 128.9 104.15 128.2 103.75
L 112.45 94.65
Q 111.75 94.25 110.8 94.2 Z" />
    </g>

    <g id="Layer0_0_MEMBER_1_MEMBER_1_MEMBER_0_FILL">
      <path fill="#C5C9D7" stroke="none" d="
M 113.4 106.4
Q 114.5 106.9 115.8 106.55 116.5 106.35 117.75 105.7 119.1 104.95 118.8 103.9 118.55 103.1 117.05 101.65 115.15 99.9 113.25 99.55 111.35 99.2 109.45 100 108.05 100.6 107.5 101.3 107.15 101.8 107.15 102.1 107.2 102.5 107.9 103.05
L 113.4 106.4 Z" />
    </g>

    <g id="Layer0_0_MEMBER_1_MEMBER_1_MEMBER_1_FILL">
      <path fill="#E5E8F4" stroke="none" d="
M 113.45 105.8
Q 114.55 106.35 115.95 105.95 116.7 105.75 117.95 105.05 119.4 104.3 119.1 103.15 118.8 102.3 117.2 100.8 115.2 98.95 113.25 98.6 111.3 98.25 109.3 99.1 107.75 99.75 107.25 100.45 106.85 101 106.85 101.3 106.9 101.7 107.65 102.3
L 113.45 105.8 Z" />
    </g>

    <g id="Layer0_0_MEMBER_2_MEMBER_0_FILL">
      <path fill="#F5F2E8" stroke="none" d="
M 57 93.05
Q 56.5 93.15 56.15 93.35
L 14.1 117.55
Q 13.4 117.95 13.4 118.5 13.4 119.1 14.1 119.45
L 29.2 128.25
Q 29.3 128.35 29.8 128.45 30.3 128.75 35.45 128.65 40.5 128.55 41.05 128.25
L 83.95 103.55
Q 84.5 103.25 84.5 102.85 84.5 102.4 83.95 102.1
L 68.9 93.35
Q 68.15 92.95 62.95 92.8 57.65 92.65 57 93.05 Z" />
    </g>

    <g id="Layer0_0_MEMBER_2_MEMBER_1_MEMBER_0_MEMBER_0_FILL">
      <path fill="#C4C8D7" stroke="none" d="
M 59.5 69.7
L 51.55 74.3 38.25 102.25
Q 37.65 103.6 38.1 105.05 38.55 106.45 39.85 107.2
L 52.45 114.45
Q 54.55 115.7 57 115.7 59.45 115.7 61.55 114.45
L 72.15 108.35
Q 73.45 107.6 73.45 106.1 73.45 104.6 72.15 103.85
L 58.2 95.85
Q 57.1 95.2 56.6 94.1 56.05 92.95 56.25 91.7
L 59.5 69.7 Z" />
    </g>

    <g id="Layer0_0_MEMBER_2_MEMBER_1_MEMBER_0_MEMBER_1_FILL">
      <path fill="#E7E7F0" stroke="none" d="
M 59.8 95.35
Q 58.7 94.75 58.2 93.6 57.65 92.5 57.85 91.25
L 61.1 69.25 53.15 73.8 39.5 102.55
Q 39 103.55 39.35 104.65 39.7 105.75 40.7 106.3
L 52.4 113.05
Q 54.5 114.25 56.95 114.25 59.35 114.25 61.45 113.05
L 72.05 106.9
Q 73.35 106.15 73.35 104.7 73.35 103.2 72.05 102.45
L 59.8 95.35 Z" />
    </g>

    <g id="Layer0_0_MEMBER_2_MEMBER_1_MEMBER_0_MEMBER_2_MEMBER_0_FILL">
      <path fill="url(#Gradient_1)" stroke="none" d="
M 81.8 15.9
L 81.8 15.95
Q 81.15 15.6 80.3 16.15
L 21.05 50.3
Q 20.1 50.85 19.45 52.05 18.8 53.25 18.85 54.35
L 20.35 103.2
Q 20.35 104.95 21.6 105.45
L 23.55 106.3 24.75 104.5 81 72
Q 82.35 71.2 83.25 69.55 84.2 67.9 84.15 66.35
L 82.7 18.45 83.8 16.8 81.8 15.9 Z" />
    </g>

    <g id="Layer0_0_MEMBER_2_MEMBER_1_MEMBER_0_MEMBER_2_MEMBER_1_FILL">
      <path fill="#D3D3E2" stroke="none" d="
M 86.15 67.25
L 86.1 65.95 22.3 102.8 22.35 104.1
Q 22.4 105.65 23.35 106.2 24.35 106.8 25.7 106
L 83 72.9
Q 84.35 72.1 85.25 70.45 86.2 68.8 86.15 67.25 Z" />
    </g>

    <g id="Layer0_0_MEMBER_2_MEMBER_1_MEMBER_0_MEMBER_2_MEMBER_2_FILL">
      <path fill="#494855" stroke="none" d="
M 601.25 75.35
Q 596.35 72.55 589.7 76.4
L 174.95 315.45
Q 168.3 319.3 163.75 327.7 159.2 335.75 159.55 343.45
L 169.7 676.65 616.3 418.7 606.15 85.85
Q 605.8 78.15 601.25 75.35 Z" />
    </g>

    <g id="Layer0_0_MEMBER_2_MEMBER_1_MEMBER_0_MEMBER_2_MEMBER_3_FILL">
      <path fill="#7D7CED" stroke="none" d="
M 84.65 63.3
L 83.3 18.25 22.15 53.55 23.55 98.6 84.65 63.3 Z" />
    </g>

    <g id="Layer0_0_MEMBER_2_MEMBER_1_MEMBER_0_MEMBER_2_MEMBER_4_FILL">
      <path fill="#C4C8D7" stroke="none" d="
M 84.65 63.3
L 84.55 60.6 23.45 95.9 23.55 98.6 84.65 63.3 Z" />
    </g>

    <g id="Layer0_0_MEMBER_2_MEMBER_1_MEMBER_0_MEMBER_3_FILL">
      <path fill="#EFF0F5" stroke="none" d="
M 72.05 106.9
Q 73.35 106.15 73.35 104.7 73.35 103.2 72.05 102.45
L 59.8 95.35 40.7 106.3 52.4 113.05
Q 54.5 114.25 56.95 114.25 59.35 114.25 61.45 113.05
L 72.05 106.9 Z" />
    </g>

    <g id="Layer0_0_MEMBER_2_MEMBER_2_MEMBER_0_MEMBER_0_FILL">
      <path fill="#EFF0F5" stroke="none" d="
M 36.15 56.4
L 36.95 83.2 73.35 62.2 72.55 35.4 36.15 56.4 Z" />
    </g>

    <g id="Layer0_0_MEMBER_2_MEMBER_2_MEMBER_0_MEMBER_1_FILL">
      <path fill="#D9DBE6" stroke="none" d="
M 72.7 39.9
L 72.55 35.4 36.15 56.4 36.3 60.95 72.7 39.9 Z" />
    </g>

    <g id="Layer0_0_MEMBER_2_MEMBER_2_MEMBER_0_MEMBER_2_FILL">
      <path fill="#FA7A80" stroke="none" d="
M 39.85 57.85
L 39.8 56.15 37.5 57.45 37.55 59.15 39.85 57.85 Z" />
    </g>

    <g id="Layer0_0_MEMBER_2_MEMBER_3_MEMBER_0_FILL">
      <path fill="#FEE471" stroke="none" d="
M 28.95 64.35
Q 28.95 64.05 28.65 64.2
L 26.85 65.2
Q 26.8 65.25 26.7 65.25 26.6 65.25 26.6 65.15
L 26.55 65.05
Q 26.45 64.85 26.25 65
L 24.65 65.95
Q 24.45 66 24.35 66.35
L 24.3 66.65 24.25 66.75 24.25 69.95
Q 24.25 70.2 24.5 70.1
L 28.75 67.65
Q 28.95 67.45 28.95 67.25
L 28.95 64.35 Z" />
    </g>

    <g id="Layer0_0_MEMBER_2_MEMBER_3_MEMBER_1_FILL">
      <path fill="#FEEB91" stroke="none" d="
M 28.95 64.55
Q 28.95 64.25 28.75 64.45
L 24.5 66.9
Q 24.25 67 24.25 67.3
L 24.25 69.95
Q 24.25 70.2 24.5 70.1
L 28.75 67.65
Q 28.95 67.45 28.95 67.25
L 28.95 64.55 Z" />
    </g>

    <g id="Layer0_0_MEMBER_2_MEMBER_4_MEMBER_0_FILL">
      <path fill="#FEE471" stroke="none" d="
M 24.65 58.75
Q 24.45 58.8 24.35 59.15
L 24.3 59.45 24.25 59.55 24.25 62.75
Q 24.25 63 24.5 62.9
L 28.75 60.4
Q 28.95 60.3 28.95 60.05
L 28.95 57.15
Q 28.95 56.9 28.65 56.95
L 26.85 58
Q 26.8 58.05 26.7 58.05 26.6 58.05 26.6 57.95
L 26.55 57.85
Q 26.45 57.65 26.25 57.8
L 24.65 58.75 Z" />
    </g>

    <g id="Layer0_0_MEMBER_2_MEMBER_4_MEMBER_1_FILL">
      <path fill="#FEEB91" stroke="none" d="
M 28.95 57.35
Q 28.95 57.05 28.75 57.25
L 24.5 59.7
Q 24.25 59.8 24.25 60.05
L 24.25 62.75
Q 24.25 63 24.5 62.9
L 28.75 60.4
Q 28.95 60.3 28.95 60.05
L 28.95 57.35 Z" />
    </g>

    <g id="Layer0_0_MEMBER_2_MEMBER_5_MEMBER_0_FILL">
      <path fill="#FEE471" stroke="none" d="
M 80.2 25
Q 80.2 24.65 79.9 24.85
L 78.1 25.9
Q 77.85 26 77.8 25.8
L 77.8 25.7
Q 77.75 25.55 77.5 25.65
L 75.85 26.6
Q 75.6 26.75 75.6 27
L 75.5 27.3 75.5 30.6
Q 75.5 30.85 75.75 30.75
L 80 28.3
Q 80.2 28.1 80.2 27.9
L 80.2 25 Z" />
    </g>

    <g id="Layer0_0_MEMBER_2_MEMBER_5_MEMBER_1_FILL">
      <path fill="#FEEB91" stroke="none" d="
M 80.2 25.2
Q 80.2 25 80 25.1
L 75.75 27.55
Q 75.5 27.65 75.5 27.95
L 75.5 30.6
Q 75.5 30.85 75.75 30.75
L 80 28.3
Q 80.2 28.1 80.2 27.9
L 80.2 25.2 Z" />
    </g>

    <g id="Layer0_0_MEMBER_2_MEMBER_6_FILL">
      <path fill="#FFFFFF" fill-opacity="0.2" stroke="none" d="
M 30.7 0
L 6.5 14 0 68.9 24.2 54.9 30.7 0 Z" />
    </g>
  </defs>

  <g transform="matrix( 7, 0, 0, 7, 13.6,-42.95) ">
    <use xlink:href="#Layer0_0_MEMBER_0_MEMBER_0_FILL" />
  </g>

  <g transform="matrix( 7, 0, 0, 7, 13.6,-42.95) ">
    <use xlink:href="#Layer0_0_MEMBER_0_MEMBER_1_FILL" />
  </g>

  <g transform="matrix( 7, 0, 0, 7, 13.6,-42.95) ">
    <use xlink:href="#Layer0_0_MEMBER_0_MEMBER_2_MEMBER_0_FILL" />
  </g>

  <g transform="matrix( 7, 0, 0, 7, 13.6,-42.95) ">
    <use xlink:href="#Layer0_0_MEMBER_0_MEMBER_2_MEMBER_1_FILL" />
  </g>

  <g transform="matrix( 7, 0, 0, 7, 13.6,-42.95) ">
    <use xlink:href="#Layer0_0_MEMBER_0_MEMBER_2_MEMBER_2_FILL" />
  </g>

  <g transform="matrix( 7, 0, 0, 7, 13.6,-42.95) ">
    <use xlink:href="#Layer0_0_MEMBER_0_MEMBER_2_MEMBER_3_FILL" />
  </g>

  <g transform="matrix( 7, 0, 0, 7, 13.6,-42.95) ">
    <use xlink:href="#Layer0_0_MEMBER_0_MEMBER_2_MEMBER_4_FILL" />
  </g>

  <g transform="matrix( 7, 0, 0, 7, 13.6,-42.95) ">
    <use xlink:href="#Layer0_0_MEMBER_0_MEMBER_2_MEMBER_5_FILL" />
  </g>

  <g transform="matrix( 7, 0, 0, 7, 13.6,-42.95) ">
    <use xlink:href="#Layer0_0_MEMBER_0_MEMBER_2_MEMBER_6_FILL" />
  </g>

  <g transform="matrix( 7, 0, 0, 7, 13.6,-42.95) ">
    <use xlink:href="#Layer0_0_MEMBER_0_MEMBER_2_MEMBER_7_FILL" />
  </g>

  <g transform="matrix( 7, 0, 0, 7, 13.6,-42.95) ">
    <use xlink:href="#Layer0_0_MEMBER_0_MEMBER_2_MEMBER_8_FILL" />
  </g>

  <g transform="matrix( 7, 0, 0, 7, 13.6,-42.95) ">
    <use xlink:href="#Layer0_0_MEMBER_0_MEMBER_2_MEMBER_9_FILL" />
  </g>

  <g transform="matrix( 7, 0, 0, 7, 13.6,-42.95) ">
    <use xlink:href="#Layer0_0_MEMBER_0_MEMBER_2_MEMBER_10_FILL" />
  </g>

  <g transform="matrix( 7, 0, 0, 7, 13.6,-42.95) ">
    <use xlink:href="#Layer0_0_MEMBER_0_MEMBER_2_MEMBER_11_FILL" />
  </g>

  <g transform="matrix( 7, 0, 0, 7, 13.6,-42.95) ">
    <use xlink:href="#Layer0_0_MEMBER_0_MEMBER_2_MEMBER_12_FILL" />
  </g>

  <g transform="matrix( 7, 0, 0, 7, 13.6,-42.95) ">
    <use xlink:href="#Layer0_0_MEMBER_0_MEMBER_2_MEMBER_13_FILL" />
  </g>

  <g transform="matrix( 7, 0, 0, 7, 13.6,-42.95) ">
    <use xlink:href="#Layer0_0_MEMBER_0_MEMBER_2_MEMBER_14_FILL" />
  </g>

  <g transform="matrix( 7, 0, 0, 7, 13.6,-42.95) ">
    <use xlink:href="#Layer0_0_MEMBER_0_MEMBER_2_MEMBER_15_FILL" />
  </g>

  <g transform="matrix( 7, 0, 0, 7, 13.6,-42.95) ">
    <use xlink:href="#Layer0_0_MEMBER_0_MEMBER_2_MEMBER_16_FILL" />
  </g>

  <g transform="matrix( 7, 0, 0, 7, 13.6,-42.95) ">
    <use xlink:href="#Layer0_0_MEMBER_0_MEMBER_2_MEMBER_17_FILL" />
  </g>

  <g transform="matrix( 7, 0, 0, 7, 13.6,-42.95) ">
    <use xlink:href="#Layer0_0_MEMBER_0_MEMBER_2_MEMBER_18_FILL" />
  </g>

  <g transform="matrix( 7, 0, 0, 7, 13.6,-42.95) ">
    <use xlink:href="#Layer0_0_MEMBER_0_MEMBER_2_MEMBER_19_FILL" />
  </g>

  <g transform="matrix( 7, 0, 0, 7, 13.6,-42.95) ">
    <use xlink:href="#Layer0_0_MEMBER_0_MEMBER_2_MEMBER_20_FILL" />
  </g>

  <g transform="matrix( 7, 0, 0, 7, 13.6,-42.95) ">
    <use xlink:href="#Layer0_0_MEMBER_0_MEMBER_2_MEMBER_21_FILL" />
  </g>

  <g transform="matrix( 7, 0, 0, 7, 13.6,-42.95) ">
    <use xlink:href="#Layer0_0_MEMBER_0_MEMBER_2_MEMBER_22_FILL" />
  </g>

  <g transform="matrix( 7, 0, 0, 7, 13.6,-42.95) ">
    <use xlink:href="#Layer0_0_MEMBER_0_MEMBER_2_MEMBER_23_FILL" />
  </g>

  <g transform="matrix( 7, 0, 0, 7, 13.6,-42.95) ">
    <use xlink:href="#Layer0_0_MEMBER_0_MEMBER_2_MEMBER_24_FILL" />
  </g>

  <g transform="matrix( 7, 0, 0, 7, 13.6,-42.95) ">
    <use xlink:href="#Layer0_0_MEMBER_0_MEMBER_2_MEMBER_25_FILL" />
  </g>

  <g transform="matrix( 7, 0, 0, 7, 13.6,-42.95) ">
    <use xlink:href="#Layer0_0_MEMBER_0_MEMBER_2_MEMBER_26_FILL" />
  </g>

  <g transform="matrix( 7, 0, 0, 7, 13.6,-42.95) ">
    <use xlink:href="#Layer0_0_MEMBER_0_MEMBER_2_MEMBER_27_FILL" />
  </g>

  <g transform="matrix( 7, 0, 0, 7, 13.6,-42.95) ">
    <use xlink:href="#Layer0_0_MEMBER_0_MEMBER_2_MEMBER_28_FILL" />
  </g>

  <g transform="matrix( 7, 0, 0, 7, 13.6,-42.95) ">
    <use xlink:href="#Layer0_0_MEMBER_0_MEMBER_2_MEMBER_29_FILL" />
  </g>

  <g transform="matrix( 7, 0, 0, 7, 13.6,-42.95) ">
    <use xlink:href="#Layer0_0_MEMBER_0_MEMBER_2_MEMBER_30_FILL" />
  </g>

  <g transform="matrix( 7, 0, 0, 7, 13.6,-42.95) ">
    <use xlink:href="#Layer0_0_MEMBER_0_MEMBER_2_MEMBER_31_FILL" />
  </g>

  <g transform="matrix( 7, 0, 0, 7, 13.6,-42.95) ">
    <use xlink:href="#Layer0_0_MEMBER_0_MEMBER_2_MEMBER_32_FILL" />
  </g>

  <g transform="matrix( 7, 0, 0, 7, 13.6,-42.95) ">
    <use xlink:href="#Layer0_0_MEMBER_0_MEMBER_2_MEMBER_33_FILL" />
  </g>

  <g transform="matrix( 7, 0, 0, 7, 13.6,-42.95) ">
    <use xlink:href="#Layer0_0_MEMBER_0_MEMBER_2_MEMBER_34_FILL" />
  </g>

  <g transform="matrix( 7, 0, 0, 7, 13.6,-42.95) ">
    <use xlink:href="#Layer0_0_MEMBER_0_MEMBER_2_MEMBER_35_FILL" />
  </g>

  <g transform="matrix( 7, 0, 0, 7, 13.6,-42.95) ">
    <use xlink:href="#Layer0_0_MEMBER_0_MEMBER_2_MEMBER_36_FILL" />
  </g>

  <g transform="matrix( 7, 0, 0, 7, 13.6,-42.95) ">
    <use xlink:href="#Layer0_0_MEMBER_0_MEMBER_2_MEMBER_37_FILL" />
  </g>

  <g transform="matrix( 7, 0, 0, 7, 13.6,-42.95) ">
    <use xlink:href="#Layer0_0_MEMBER_0_MEMBER_2_MEMBER_38_FILL" />
  </g>

  <g transform="matrix( 7, 0, 0, 7, 13.6,-42.95) ">
    <use xlink:href="#Layer0_0_MEMBER_0_MEMBER_2_MEMBER_39_FILL" />
  </g>

  <g transform="matrix( 7, 0, 0, 7, 13.6,-42.95) ">
    <use xlink:href="#Layer0_0_MEMBER_0_MEMBER_2_MEMBER_40_FILL" />
  </g>

  <g transform="matrix( 7, 0, 0, 7, 13.6,-42.95) ">
    <use xlink:href="#Layer0_0_MEMBER_0_MEMBER_2_MEMBER_41_FILL" />
  </g>

  <g transform="matrix( 7, 0, 0, 7, 13.6,-42.95) ">
    <use xlink:href="#Layer0_0_MEMBER_0_MEMBER_2_MEMBER_42_FILL" />
  </g>

  <g transform="matrix( 7, 0, 0, 7, 13.6,-42.95) ">
    <use xlink:href="#Layer0_0_MEMBER_0_MEMBER_2_MEMBER_43_FILL" />
  </g>

  <g transform="matrix( 7, 0, 0, 7, 13.6,-42.95) ">
    <use xlink:href="#Layer0_0_MEMBER_0_MEMBER_2_MEMBER_44_FILL" />
  </g>

  <g transform="matrix( 7, 0, 0, 7, 13.6,-42.95) ">
    <use xlink:href="#Layer0_0_MEMBER_0_MEMBER_2_MEMBER_45_FILL" />
  </g>

  <g transform="matrix( 7, 0, 0, 7, 13.6,-42.95) ">
    <use xlink:href="#Layer0_0_MEMBER_0_MEMBER_2_MEMBER_46_FILL" />
  </g>

  <g transform="matrix( 7, 0, 0, 7, 13.6,-42.95) ">
    <use xlink:href="#Layer0_0_MEMBER_0_MEMBER_2_MEMBER_47_FILL" />
  </g>

  <g transform="matrix( 7, 0, 0, 7, 13.6,-42.95) ">
    <use xlink:href="#Layer0_0_MEMBER_0_MEMBER_2_MEMBER_48_FILL" />
  </g>

  <g transform="matrix( 7, 0, 0, 7, 13.6,-42.95) ">
    <use xlink:href="#Layer0_0_MEMBER_0_MEMBER_2_MEMBER_49_FILL" />
  </g>

  <g transform="matrix( 7, 0, 0, 7, 13.6,-42.95) ">
    <use xlink:href="#Layer0_0_MEMBER_0_MEMBER_2_MEMBER_50_FILL" />
  </g>

  <g transform="matrix( 7, 0, 0, 7, 13.6,-42.95) ">
    <use xlink:href="#Layer0_0_MEMBER_0_MEMBER_2_MEMBER_51_FILL" />
  </g>

  <g transform="matrix( 7, 0, 0, 7, 13.6,-42.95) ">
    <use xlink:href="#Layer0_0_MEMBER_0_MEMBER_2_MEMBER_52_FILL" />
  </g>

  <g transform="matrix( 7, 0, 0, 7, 13.6,-42.95) ">
    <use xlink:href="#Layer0_0_MEMBER_0_MEMBER_2_MEMBER_53_FILL" />
  </g>

  <g transform="matrix( 7, 0, 0, 7, 13.6,-42.95) ">
    <use xlink:href="#Layer0_0_MEMBER_0_MEMBER_2_MEMBER_54_FILL" />
  </g>

  <g transform="matrix( 7, 0, 0, 7, 13.6,-42.95) ">
    <use xlink:href="#Layer0_0_MEMBER_0_MEMBER_2_MEMBER_55_FILL" />
  </g>

  <g transform="matrix( 7, 0, 0, 7, 13.6,-42.95) ">
    <use xlink:href="#Layer0_0_MEMBER_0_MEMBER_2_MEMBER_56_FILL" />
  </g>

  <g transform="matrix( 7, 0, 0, 7, 13.6,-42.95) ">
    <use xlink:href="#Layer0_0_MEMBER_0_MEMBER_2_MEMBER_57_FILL" />
  </g>

  <g transform="matrix( 7, 0, 0, 7, 13.6,-42.95) ">
    <use xlink:href="#Layer0_0_MEMBER_0_MEMBER_2_MEMBER_58_FILL" />
  </g>

  <g transform="matrix( 7, 0, 0, 7, 13.6,-42.95) ">
    <use xlink:href="#Layer0_0_MEMBER_0_MEMBER_2_MEMBER_59_FILL" />
  </g>

  <g transform="matrix( 7, 0, 0, 7, 13.6,-42.95) ">
    <use xlink:href="#Layer0_0_MEMBER_0_MEMBER_2_MEMBER_60_FILL" />
  </g>

  <g transform="matrix( 7, 0, 0, 7, 13.6,-42.95) ">
    <use xlink:href="#Layer0_0_MEMBER_0_MEMBER_2_MEMBER_61_FILL" />
  </g>

  <g transform="matrix( 7, 0, 0, 7, 13.6,-42.95) ">
    <use xlink:href="#Layer0_0_MEMBER_0_MEMBER_2_MEMBER_62_FILL" />
  </g>

  <g transform="matrix( 7, 0, 0, 7, 13.6,-42.95) ">
    <use xlink:href="#Layer0_0_MEMBER_0_MEMBER_2_MEMBER_63_FILL" />
  </g>

  <g transform="matrix( 7, 0, 0, 7, 13.6,-42.95) ">
    <use xlink:href="#Layer0_0_MEMBER_0_MEMBER_2_MEMBER_64_FILL" />
  </g>

  <g transform="matrix( 7, 0, 0, 7, 13.6,-42.95) ">
    <use xlink:href="#Layer0_0_MEMBER_0_MEMBER_2_MEMBER_65_FILL" />
  </g>

  <g transform="matrix( 7, 0, 0, 7, 13.6,-42.95) ">
    <use xlink:href="#Layer0_0_MEMBER_0_MEMBER_2_MEMBER_66_FILL" />
  </g>

  <g transform="matrix( 7, 0, 0, 7, 13.6,-42.95) ">
    <use xlink:href="#Layer0_0_MEMBER_0_MEMBER_2_MEMBER_67_FILL" />
  </g>

  <g transform="matrix( 7, 0, 0, 7, 13.6,-42.95) ">
    <use xlink:href="#Layer0_0_MEMBER_0_MEMBER_2_MEMBER_68_FILL" />
  </g>

  <g transform="matrix( 7, 0, 0, 7, 13.6,-42.95) ">
    <use xlink:href="#Layer0_0_MEMBER_0_MEMBER_2_MEMBER_69_FILL" />
  </g>

  <g transform="matrix( 7, 0, 0, 7, 13.6,-42.95) ">
    <use xlink:href="#Layer0_0_MEMBER_0_MEMBER_2_MEMBER_70_FILL" />
  </g>

  <g transform="matrix( 7, 0, 0, 7, 13.6,-42.95) ">
    <use xlink:href="#Layer0_0_MEMBER_0_MEMBER_2_MEMBER_71_FILL" />
  </g>

  <g transform="matrix( 7, 0, 0, 7, 13.6,-42.95) ">
    <use xlink:href="#Layer0_0_MEMBER_0_MEMBER_2_MEMBER_72_FILL" />
  </g>

  <g transform="matrix( 7, 0, 0, 7, 13.6,-42.95) ">
    <use xlink:href="#Layer0_0_MEMBER_0_MEMBER_2_MEMBER_73_FILL" />
  </g>

  <g transform="matrix( 7, 0, 0, 7, 13.6,-42.95) ">
    <use xlink:href="#Layer0_0_MEMBER_0_MEMBER_2_MEMBER_74_FILL" />
  </g>

  <g transform="matrix( 7, 0, 0, 7, 13.6,-42.95) ">
    <use xlink:href="#Layer0_0_MEMBER_0_MEMBER_2_MEMBER_75_FILL" />
  </g>

  <g transform="matrix( 7, 0, 0, 7, 13.6,-42.95) ">
    <use xlink:href="#Layer0_0_MEMBER_0_MEMBER_3_FILL" />
  </g>

  <g transform="matrix( 7, 0, 0, 7, 13.6,-42.95) ">
    <use xlink:href="#Layer0_0_MEMBER_0_MEMBER_4_MEMBER_0_FILL" />
  </g>

  <g transform="matrix( 7, 0, 0, 7, 13.6,-42.95) ">
    <use xlink:href="#Layer0_0_MEMBER_0_MEMBER_4_MEMBER_1_FILL" />
  </g>

  <g transform="matrix( 7, 0, 0, 7, 13.6,-42.95) ">
    <use xlink:href="#Layer0_0_MEMBER_0_MEMBER_4_MEMBER_2_FILL" />
  </g>

  <g transform="matrix( 7, 0, 0, 7, 13.6,-42.95) ">
    <use xlink:href="#Layer0_0_MEMBER_0_MEMBER_4_MEMBER_3_FILL" />
  </g>

  <g transform="matrix( 7, 0, 0, 7, 13.6,-42.95) ">
    <use xlink:href="#Layer0_0_MEMBER_0_MEMBER_4_MEMBER_4_FILL" />
  </g>

  <g transform="matrix( 7, 0, 0, 7, 13.6,-42.95) ">
    <use xlink:href="#Layer0_0_MEMBER_0_MEMBER_4_MEMBER_5_FILL" />
  </g>

  <g transform="matrix( 7, 0, 0, 7, 13.6,-42.95) ">
    <use xlink:href="#Layer0_0_MEMBER_0_MEMBER_4_MEMBER_6_FILL" />
  </g>

  <g transform="matrix( 7, 0, 0, 7, 13.6,-42.95) ">
    <use xlink:href="#Layer0_0_MEMBER_0_MEMBER_4_MEMBER_7_FILL" />
  </g>

  <g transform="matrix( 7, 0, 0, 7, 13.6,-42.95) ">
    <use xlink:href="#Layer0_0_MEMBER_0_MEMBER_4_MEMBER_8_FILL" />
  </g>

  <g transform="matrix( 7, 0, 0, 7, 13.6,-42.95) ">
    <use xlink:href="#Layer0_0_MEMBER_0_MEMBER_4_MEMBER_9_FILL" />
  </g>

  <g transform="matrix( 7, 0, 0, 7, 13.6,-42.95) ">
    <use xlink:href="#Layer0_0_MEMBER_0_MEMBER_4_MEMBER_10_FILL" />
  </g>

  <g transform="matrix( 7, 0, 0, 7, 13.6,-42.95) ">
    <use xlink:href="#Layer0_0_MEMBER_0_MEMBER_4_MEMBER_11_FILL" />
  </g>

  <g transform="matrix( 7, 0, 0, 7, 13.6,-42.95) ">
    <use xlink:href="#Layer0_0_MEMBER_0_MEMBER_4_MEMBER_12_FILL" />
  </g>

  <g transform="matrix( 7, 0, 0, 7, 13.6,-42.95) ">
    <use xlink:href="#Layer0_0_MEMBER_0_MEMBER_4_MEMBER_13_FILL" />
  </g>

  <g transform="matrix( 7, 0, 0, 7, 13.6,-42.95) ">
    <use xlink:href="#Layer0_0_MEMBER_0_MEMBER_4_MEMBER_14_FILL" />
  </g>

  <g transform="matrix( 7, 0, 0, 7, 13.6,-42.95) ">
    <use xlink:href="#Layer0_0_MEMBER_0_MEMBER_4_MEMBER_15_FILL" />
  </g>

  <g transform="matrix( 7, 0, 0, 7, 13.6,-42.95) ">
    <use xlink:href="#Layer0_0_MEMBER_0_MEMBER_4_MEMBER_16_FILL" />
  </g>

  <g transform="matrix( 7, 0, 0, 7, 13.6,-42.95) ">
    <use xlink:href="#Layer0_0_MEMBER_0_MEMBER_4_MEMBER_17_FILL" />
  </g>

  <g transform="matrix( 7, 0, 0, 7, 13.6,-42.95) ">
    <use xlink:href="#Layer0_0_MEMBER_0_MEMBER_4_MEMBER_18_FILL" />
  </g>

  <g transform="matrix( 7, 0, 0, 7, 13.6,-42.95) ">
    <use xlink:href="#Layer0_0_MEMBER_0_MEMBER_4_MEMBER_19_FILL" />
  </g>

  <g transform="matrix( 7, 0, 0, 7, 13.6,-42.95) ">
    <use xlink:href="#Layer0_0_MEMBER_0_MEMBER_4_MEMBER_20_FILL" />
  </g>

  <g transform="matrix( 7, 0, 0, 7, 13.6,-42.95) ">
    <use xlink:href="#Layer0_0_MEMBER_0_MEMBER_4_MEMBER_21_FILL" />
  </g>

  <g transform="matrix( 7, 0, 0, 7, 13.6,-42.95) ">
    <use xlink:href="#Layer0_0_MEMBER_0_MEMBER_4_MEMBER_22_FILL" />
  </g>

  <g transform="matrix( 7, 0, 0, 7, 13.6,-42.95) ">
    <use xlink:href="#Layer0_0_MEMBER_0_MEMBER_4_MEMBER_23_FILL" />
  </g>

  <g transform="matrix( 7, 0, 0, 7, 13.6,-42.95) ">
    <use xlink:href="#Layer0_0_MEMBER_0_MEMBER_4_MEMBER_24_FILL" />
  </g>

  <g transform="matrix( 7, 0, 0, 7, 13.6,-42.95) ">
    <use xlink:href="#Layer0_0_MEMBER_0_MEMBER_4_MEMBER_25_FILL" />
  </g>

  <g transform="matrix( 7, 0, 0, 7, 13.6,-42.95) ">
    <use xlink:href="#Layer0_0_MEMBER_0_MEMBER_4_MEMBER_26_FILL" />
  </g>

  <g transform="matrix( 7, 0, 0, 7, 13.6,-42.95) ">
    <use xlink:href="#Layer0_0_MEMBER_0_MEMBER_4_MEMBER_27_FILL" />
  </g>

  <g transform="matrix( 7, 0, 0, 7, 13.6,-42.95) ">
    <use xlink:href="#Layer0_0_MEMBER_0_MEMBER_4_MEMBER_28_FILL" />
  </g>

  <g transform="matrix( 7, 0, 0, 7, 13.6,-42.95) ">
    <use xlink:href="#Layer0_0_MEMBER_0_MEMBER_4_MEMBER_29_FILL" />
  </g>

  <g transform="matrix( 7, 0, 0, 7, 13.6,-42.95) ">
    <use xlink:href="#Layer0_0_MEMBER_0_MEMBER_4_MEMBER_30_FILL" />
  </g>

  <g transform="matrix( 7, 0, 0, 7, 13.6,-42.95) ">
    <use xlink:href="#Layer0_0_MEMBER_0_MEMBER_4_MEMBER_31_FILL" />
  </g>

  <g transform="matrix( 7, 0, 0, 7, 13.6,-42.95) ">
    <use xlink:href="#Layer0_0_MEMBER_0_MEMBER_4_MEMBER_32_FILL" />
  </g>

  <g transform="matrix( 7, 0, 0, 7, 13.6,-42.95) ">
    <use xlink:href="#Layer0_0_MEMBER_0_MEMBER_4_MEMBER_33_FILL" />
  </g>

  <g transform="matrix( 7, 0, 0, 7, 13.6,-42.95) ">
    <use xlink:href="#Layer0_0_MEMBER_0_MEMBER_4_MEMBER_34_FILL" />
  </g>

  <g transform="matrix( 7, 0, 0, 7, 13.6,-42.95) ">
    <use xlink:href="#Layer0_0_MEMBER_0_MEMBER_4_MEMBER_35_FILL" />
  </g>

  <g transform="matrix( 7, 0, 0, 7, 13.6,-42.95) ">
    <use xlink:href="#Layer0_0_MEMBER_0_MEMBER_4_MEMBER_36_FILL" />
  </g>

  <g transform="matrix( 7, 0, 0, 7, 13.6,-42.95) ">
    <use xlink:href="#Layer0_0_MEMBER_0_MEMBER_4_MEMBER_37_FILL" />
  </g>

  <g transform="matrix( 7, 0, 0, 7, 13.6,-42.95) ">
    <use xlink:href="#Layer0_0_MEMBER_0_MEMBER_4_MEMBER_38_FILL" />
  </g>

  <g transform="matrix( 7, 0, 0, 7, 13.6,-42.95) ">
    <use xlink:href="#Layer0_0_MEMBER_0_MEMBER_4_MEMBER_39_FILL" />
  </g>

  <g transform="matrix( 7, 0, 0, 7, 13.6,-42.95) ">
    <use xlink:href="#Layer0_0_MEMBER_0_MEMBER_4_MEMBER_40_FILL" />
  </g>

  <g transform="matrix( 7, 0, 0, 7, 13.6,-42.95) ">
    <use xlink:href="#Layer0_0_MEMBER_0_MEMBER_4_MEMBER_41_FILL" />
  </g>

  <g transform="matrix( 7, 0, 0, 7, 13.6,-42.95) ">
    <use xlink:href="#Layer0_0_MEMBER_0_MEMBER_4_MEMBER_42_FILL" />
  </g>

  <g transform="matrix( 7, 0, 0, 7, 13.6,-42.95) ">
    <use xlink:href="#Layer0_0_MEMBER_0_MEMBER_4_MEMBER_43_FILL" />
  </g>

  <g transform="matrix( 7, 0, 0, 7, 13.6,-42.95) ">
    <use xlink:href="#Layer0_0_MEMBER_0_MEMBER_4_MEMBER_44_FILL" />
  </g>

  <g transform="matrix( 7, 0, 0, 7, 13.6,-42.95) ">
    <use xlink:href="#Layer0_0_MEMBER_0_MEMBER_4_MEMBER_45_FILL" />
  </g>

  <g transform="matrix( 7, 0, 0, 7, 13.6,-42.95) ">
    <use xlink:href="#Layer0_0_MEMBER_0_MEMBER_4_MEMBER_46_FILL" />
  </g>

  <g transform="matrix( 7, 0, 0, 7, 13.6,-42.95) ">
    <use xlink:href="#Layer0_0_MEMBER_0_MEMBER_4_MEMBER_47_FILL" />
  </g>

  <g transform="matrix( 7, 0, 0, 7, 13.6,-42.95) ">
    <use xlink:href="#Layer0_0_MEMBER_0_MEMBER_4_MEMBER_48_FILL" />
  </g>

  <g transform="matrix( 7, 0, 0, 7, 13.6,-42.95) ">
    <use xlink:href="#Layer0_0_MEMBER_0_MEMBER_4_MEMBER_49_FILL" />
  </g>

  <g transform="matrix( 7, 0, 0, 7, 13.6,-42.95) ">
    <use xlink:href="#Layer0_0_MEMBER_0_MEMBER_4_MEMBER_50_FILL" />
  </g>

  <g transform="matrix( 7, 0, 0, 7, 13.6,-42.95) ">
    <use xlink:href="#Layer0_0_MEMBER_0_MEMBER_4_MEMBER_51_FILL" />
  </g>

  <g transform="matrix( 7, 0, 0, 7, 13.6,-42.95) ">
    <use xlink:href="#Layer0_0_MEMBER_0_MEMBER_4_MEMBER_52_FILL" />
  </g>

  <g transform="matrix( 7, 0, 0, 7, 13.6,-42.95) ">
    <use xlink:href="#Layer0_0_MEMBER_0_MEMBER_4_MEMBER_53_FILL" />
  </g>

  <g transform="matrix( 7, 0, 0, 7, 13.6,-42.95) ">
    <use xlink:href="#Layer0_0_MEMBER_0_MEMBER_4_MEMBER_54_FILL" />
  </g>

  <g transform="matrix( 7, 0, 0, 7, 13.6,-42.95) ">
    <use xlink:href="#Layer0_0_MEMBER_0_MEMBER_4_MEMBER_55_FILL" />
  </g>

  <g transform="matrix( 7, 0, 0, 7, 13.6,-42.95) ">
    <use xlink:href="#Layer0_0_MEMBER_0_MEMBER_4_MEMBER_56_FILL" />
  </g>

  <g transform="matrix( 7, 0, 0, 7, 13.6,-42.95) ">
    <use xlink:href="#Layer0_0_MEMBER_0_MEMBER_4_MEMBER_57_FILL" />
  </g>

  <g transform="matrix( 7, 0, 0, 7, 13.6,-42.95) ">
    <use xlink:href="#Layer0_0_MEMBER_0_MEMBER_4_MEMBER_58_FILL" />
  </g>

  <g transform="matrix( 7, 0, 0, 7, 13.6,-42.95) ">
    <use xlink:href="#Layer0_0_MEMBER_0_MEMBER_4_MEMBER_59_FILL" />
  </g>

  <g transform="matrix( 7, 0, 0, 7, 13.6,-42.95) ">
    <use xlink:href="#Layer0_0_MEMBER_0_MEMBER_4_MEMBER_60_FILL" />
  </g>

  <g transform="matrix( 7, 0, 0, 7, 13.6,-42.95) ">
    <use xlink:href="#Layer0_0_MEMBER_0_MEMBER_4_MEMBER_61_FILL" />
  </g>

  <g transform="matrix( 7, 0, 0, 7, 13.6,-42.95) ">
    <use xlink:href="#Layer0_0_MEMBER_0_MEMBER_4_MEMBER_62_FILL" />
  </g>

  <g transform="matrix( 7, 0, 0, 7, 13.6,-42.95) ">
    <use xlink:href="#Layer0_0_MEMBER_0_MEMBER_4_MEMBER_63_FILL" />
  </g>

  <g transform="matrix( 7, 0, 0, 7, 13.6,-42.95) ">
    <use xlink:href="#Layer0_0_MEMBER_0_MEMBER_4_MEMBER_64_FILL" />
  </g>

  <g transform="matrix( 7, 0, 0, 7, 13.6,-42.95) ">
    <use xlink:href="#Layer0_0_MEMBER_0_MEMBER_4_MEMBER_65_FILL" />
  </g>

  <g transform="matrix( 7, 0, 0, 7, 13.6,-42.95) ">
    <use xlink:href="#Layer0_0_MEMBER_0_MEMBER_4_MEMBER_66_FILL" />
  </g>

  <g transform="matrix( 7, 0, 0, 7, 13.6,-42.95) ">
    <use xlink:href="#Layer0_0_MEMBER_0_MEMBER_4_MEMBER_67_FILL" />
  </g>

  <g transform="matrix( 7, 0, 0, 7, 13.6,-42.95) ">
    <use xlink:href="#Layer0_0_MEMBER_0_MEMBER_4_MEMBER_68_FILL" />
  </g>

  <g transform="matrix( 7, 0, 0, 7, 13.6,-42.95) ">
    <use xlink:href="#Layer0_0_MEMBER_0_MEMBER_4_MEMBER_69_FILL" />
  </g>

  <g transform="matrix( 7, 0, 0, 7, 13.6,-42.95) ">
    <use xlink:href="#Layer0_0_MEMBER_0_MEMBER_4_MEMBER_70_FILL" />
  </g>

  <g transform="matrix( 7, 0, 0, 7, 13.6,-42.95) ">
    <use xlink:href="#Layer0_0_MEMBER_0_MEMBER_4_MEMBER_71_FILL" />
  </g>

  <g transform="matrix( 7, 0, 0, 7, 13.6,-42.95) ">
    <use xlink:href="#Layer0_0_MEMBER_0_MEMBER_4_MEMBER_72_FILL" />
  </g>

  <g transform="matrix( 7, 0, 0, 7, 13.6,-42.95) ">
    <use xlink:href="#Layer0_0_MEMBER_0_MEMBER_4_MEMBER_73_FILL" />
  </g>

  <g transform="matrix( 7, 0, 0, 7, 13.6,-42.95) ">
    <use xlink:href="#Layer0_0_MEMBER_0_MEMBER_4_MEMBER_74_FILL" />
  </g>

  <g transform="matrix( 7, 0, 0, 7, 13.6,-42.95) ">
    <use xlink:href="#Layer0_0_MEMBER_0_MEMBER_4_MEMBER_75_FILL" />
  </g>

  <g transform="matrix( 7, 0, 0, 7, 13.6,-42.95) ">
    <use xlink:href="#Layer0_0_MEMBER_1_MEMBER_0_MEMBER_0_FILL" />
  </g>

  <g transform="matrix( 7, 0, 0, 7, 13.6,-42.95) ">
    <use xlink:href="#Layer0_0_MEMBER_1_MEMBER_1_MEMBER_0_FILL" />
  </g>

  <g transform="matrix( 7, 0, 0, 7, 13.6,-42.95) ">
    <use xlink:href="#Layer0_0_MEMBER_1_MEMBER_1_MEMBER_1_FILL" />
  </g>

  <g transform="matrix( 7, 0, 0, 7, 13.6,-42.95) ">
    <use xlink:href="#Layer0_0_MEMBER_2_MEMBER_0_FILL" />
  </g>

  <g transform="matrix( 7, 0, 0, 7, 13.6,-42.95) ">
    <use xlink:href="#Layer0_0_MEMBER_2_MEMBER_1_MEMBER_0_MEMBER_0_FILL" />
  </g>

  <g transform="matrix( 7, 0, 0, 7, 13.6,-42.95) ">
    <use xlink:href="#Layer0_0_MEMBER_2_MEMBER_1_MEMBER_0_MEMBER_1_FILL" />
  </g>

  <g transform="matrix( 7, 0, 0, 7, 13.6,-42.95) ">
    <use xlink:href="#Layer0_0_MEMBER_2_MEMBER_1_MEMBER_0_MEMBER_2_MEMBER_0_FILL" />
  </g>

  <g transform="matrix( 7, 0, 0, 7, 13.6,-42.95) ">
    <use xlink:href="#Layer0_0_MEMBER_2_MEMBER_1_MEMBER_0_MEMBER_2_MEMBER_1_FILL" />
  </g>

  <g transform="matrix( 1, 0, 0, 1, 0,0) ">
    <use xlink:href="#Layer0_0_MEMBER_2_MEMBER_1_MEMBER_0_MEMBER_2_MEMBER_2_FILL" />
  </g>

  <g transform="matrix( 7, 0, 0, 7, 13.6,-42.95) ">
    <use xlink:href="#Layer0_0_MEMBER_2_MEMBER_1_MEMBER_0_MEMBER_2_MEMBER_3_FILL" />
  </g>

  <g transform="matrix( 7, 0, 0, 7, 13.6,-42.95) ">
    <use xlink:href="#Layer0_0_MEMBER_2_MEMBER_1_MEMBER_0_MEMBER_2_MEMBER_4_FILL" />
  </g>

  <g transform="matrix( 7, 0, 0, 7, 13.6,-42.95) ">
    <use xlink:href="#Layer0_0_MEMBER_2_MEMBER_1_MEMBER_0_MEMBER_3_FILL" />
  </g>

  <g transform="matrix( 7, 0, 0, 7, 13.6,-42.95) ">
    <use xlink:href="#Layer0_0_MEMBER_2_MEMBER_2_MEMBER_0_MEMBER_0_FILL" />
  </g>

  <g transform="matrix( 7, 0, 0, 7, 13.6,-42.95) ">
    <use xlink:href="#Layer0_0_MEMBER_2_MEMBER_2_MEMBER_0_MEMBER_1_FILL" />
  </g>

  <g transform="matrix( 7, 0, 0, 7, 13.6,-42.95) ">
    <use xlink:href="#Layer0_0_MEMBER_2_MEMBER_2_MEMBER_0_MEMBER_2_FILL" />
  </g>

  <g transform="matrix( 7, 0, 0, 7, 13.6,-42.95) ">
    <use xlink:href="#Layer0_0_MEMBER_2_MEMBER_3_MEMBER_0_FILL" />
  </g>

  <g transform="matrix( 7, 0, 0, 7, 13.6,-42.95) ">
    <use xlink:href="#Layer0_0_MEMBER_2_MEMBER_3_MEMBER_1_FILL" />
  </g>

  <g transform="matrix( 7, 0, 0, 7, 13.6,-42.95) ">
    <use xlink:href="#Layer0_0_MEMBER_2_MEMBER_4_MEMBER_0_FILL" />
  </g>

  <g transform="matrix( 7, 0, 0, 7, 13.6,-42.95) ">
    <use xlink:href="#Layer0_0_MEMBER_2_MEMBER_4_MEMBER_1_FILL" />
  </g>

  <g transform="matrix( 7, 0, 0, 7, 13.6,-42.95) ">
    <use xlink:href="#Layer0_0_MEMBER_2_MEMBER_5_MEMBER_0_FILL" />
  </g>

  <g transform="matrix( 7, 0, 0, 7, 13.6,-42.95) ">
    <use xlink:href="#Layer0_0_MEMBER_2_MEMBER_5_MEMBER_1_FILL" />
  </g>

  <g transform="matrix( 7, 0, 0, 7, 271.55,135.55) ">
    <use xlink:href="#Layer0_0_MEMBER_2_MEMBER_6_FILL" />
  </g>
</svg>